<svg width="32" height="32" viewBox="0 0 32 32" fill="none" xmlns="http://www.w3.org/2000/svg">
<path d="M11.4374 20.2951C11.7287 20.2951 12.0053 20.2691 12.2656 20.2098C12.5297 20.1529 12.7641 20.0628 12.9615 19.9254C13.159 19.7974 13.3225 19.6172 13.4415 19.3921C13.5608 19.1669 13.6179 18.8753 13.6179 18.5222C13.6179 17.83 13.4235 17.3394 13.0364 17.0407C12.6489 16.7492 12.1324 16.6022 11.4967 16.6022H8.28575V20.2951H11.4374ZM11.2741 14.5851C11.7975 14.5851 12.2308 14.4619 12.574 14.2083C12.9137 13.9617 13.0784 13.5517 13.0784 12.9899C13.0784 12.6771 13.0236 12.4187 12.9137 12.2196C12.7999 12.0205 12.6489 11.8617 12.4585 11.7526C12.2696 11.6389 12.0561 11.5607 11.8084 11.518C11.5652 11.4706 11.3101 11.4516 11.0489 11.4516H8.28575V14.5851H11.2741ZM11.6562 9.16668C12.2978 9.16668 12.8769 9.22119 13.4062 9.33734C13.9322 9.44874 14.3816 9.63362 14.7611 9.88961C15.1347 10.1456 15.4272 10.4845 15.6365 10.9136C15.8411 11.3355 15.9435 11.8617 15.9435 12.4874C15.9435 13.163 15.7901 13.7271 15.4838 14.1774C15.1747 14.6278 14.7213 14.9952 14.115 15.2844C14.9406 15.5214 15.5519 15.9386 15.9572 16.5311C16.3647 17.1308 16.5643 17.8466 16.5643 18.6857C16.5643 19.366 16.4339 19.9514 16.1736 20.4445C15.9112 20.9422 15.5535 21.3475 15.1129 21.658C14.6687 21.9733 14.1581 22.2032 13.5866 22.3549C13.0215 22.5042 12.4346 22.5801 11.8337 22.5801H5.33203V9.16668H11.6562Z" fill="white" fill-opacity="0.65"/>
<path d="M23.8415 15.1476C23.5246 14.7968 22.9877 14.6072 22.3325 14.6072C21.9061 14.6072 21.5534 14.6806 21.2709 14.8252C20.9947 14.9698 20.7686 15.15 20.5956 15.3609C20.4232 15.5766 20.3059 15.8018 20.2379 16.0459C20.1691 16.2806 20.1283 16.4963 20.1158 16.6859H24.4564C24.3926 16.0056 24.1599 15.5031 23.8415 15.1476ZM20.7766 20.2508C21.1758 20.6419 21.7535 20.8386 22.5016 20.8386C23.0396 20.8386 23.5047 20.7011 23.8949 20.4309C24.2815 20.1607 24.5166 19.8716 24.6076 19.5705H26.9569C26.5793 20.7391 26.0064 21.5734 25.2249 22.0759C24.4524 22.5808 23.5104 22.832 22.4127 22.832C21.6475 22.832 20.9592 22.7088 20.341 22.4646C19.723 22.2181 19.2065 21.8721 18.7723 21.4193C18.3492 20.9666 18.0204 20.4309 17.7859 19.8004C17.5544 19.1747 17.4375 18.4826 17.4375 17.7312C17.4375 17.0059 17.5586 16.3256 17.7959 15.6999C18.0384 15.0717 18.3731 14.5266 18.8133 14.0715C19.2546 13.614 19.7778 13.2537 20.387 12.9883C20.9964 12.7252 21.6684 12.5924 22.4127 12.5924C23.2343 12.5924 23.9541 12.7512 24.5707 13.0736C25.1855 13.3912 25.6895 13.8226 26.0856 14.3607C26.4814 14.8987 26.763 15.515 26.9391 16.2047C27.1138 16.8921 27.175 17.6127 27.1247 18.3664H20.1158C20.1158 19.1344 20.3756 19.8621 20.7766 20.2508Z" fill="white" fill-opacity="0.65"/>
<path d="M19.5703 10.0656V11.3906H25.0075V10.0656H19.5703Z" fill="white" fill-opacity="0.65"/>
</svg>
