<svg width="81" height="69" viewBox="0 0 81 69" fill="none" xmlns="http://www.w3.org/2000/svg">
<path fill-rule="evenodd" clip-rule="evenodd" d="M69.0001 3.01609e-06H69.8092V69H59.6622V68.9995H0.000442061L0.000442505 58.8525L59.6622 58.8525V10.1471L10.1471 10.1471V49.5177H0V7.69319e-06H0.000442505V0L59.6622 3.01609e-06H69.0001Z" fill="#FFDC00"/>
<path d="M76.6151 2.69922C77.1275 2.69922 77.5097 2.81052 77.7617 3.03312C78.0137 3.25152 78.1397 3.55392 78.1397 3.94032C78.1397 4.43592 77.9234 4.79082 77.4908 5.00502C77.8226 5.07222 77.9885 5.26752 77.9885 5.59092V6.75012H77.5412V5.59092C77.5412 5.43552 77.5055 5.32842 77.4341 5.26962C77.3627 5.20662 77.2409 5.17512 77.0687 5.17512H75.4685V6.75012H75.0212V2.69922H76.6151ZM75.4685 4.79712H76.6151C76.9721 4.79712 77.2388 4.71732 77.4152 4.55772C77.5916 4.39392 77.6798 4.18812 77.6798 3.94032C77.6798 3.67152 77.5916 3.46152 77.4152 3.31032C77.243 3.15492 76.9763 3.07722 76.6151 3.07722H75.4685V4.79712Z" fill="white"/>
<circle cx="76.5" cy="4.5" r="4.3" stroke="white" stroke-width="0.4"/>
</svg>
