<svg width="32" height="32" viewBox="0 0 32 32" fill="none" xmlns="http://www.w3.org/2000/svg">
<path d="M16 5.92607C13.2639 5.92607 12.9209 5.93768 11.8464 5.98674C10.7743 6.03557 10.0418 6.20576 9.4011 6.45489C8.73858 6.71231 8.17681 7.05674 7.61669 7.61686C7.05657 8.17698 6.71216 8.73876 6.45473 9.40128C6.20585 10.042 6.03542 10.7742 5.98659 11.8466C5.93752 12.9213 5.9259 13.264 5.9259 16.0001C5.9259 18.736 5.93752 19.0793 5.98659 20.1538C6.03542 21.2259 6.20585 21.9583 6.45473 22.599C6.71216 23.2615 7.05657 23.8233 7.61669 24.3832C8.17681 24.9433 8.73858 25.2877 9.4011 25.5454C10.0418 25.7943 10.7743 25.9647 11.8464 26.0135C12.9209 26.0626 13.2639 26.0742 16 26.0742C18.7359 26.0742 19.0789 26.0626 20.1533 26.0135C21.2257 25.9647 21.9581 25.7943 22.5989 25.5454C23.2614 25.2877 23.8231 24.9433 24.3833 24.3832C24.9431 23.8233 25.2878 23.2615 25.5452 22.599C25.7941 21.9583 25.9645 21.2259 26.0134 20.1538C26.0624 19.0793 26.0741 18.736 26.0741 16.0001C26.0741 13.2643 26.0624 12.9213 26.0134 11.8466C25.9645 10.7742 25.7941 10.042 25.5452 9.40128C25.2878 8.73876 24.9431 8.17698 24.3833 7.61686C23.8231 7.05674 23.2614 6.71231 22.5989 6.45489C21.9581 6.20576 21.2257 6.03557 20.1533 5.98674C19.0789 5.93768 18.7359 5.92607 16 5.92607ZM16 7.7413C18.6899 7.7413 19.0085 7.75149 20.0709 7.79984C21.0529 7.84488 21.5862 8.00892 21.9413 8.14688C22.4116 8.32964 22.7472 8.54795 23.0997 8.90042C23.4522 9.2529 23.6705 9.58853 23.8533 10.0586C23.9912 10.4137 24.1552 10.947 24.2003 11.9293C24.2486 12.9917 24.2588 13.3102 24.2588 16.0001C24.2588 18.69 24.2486 19.0086 24.2003 20.071C24.1552 21.0531 23.9912 21.5866 23.8533 21.9415C23.6705 22.4118 23.4522 22.7474 23.0997 23.0999C22.7472 23.4524 22.4116 23.6707 21.9413 23.8534C21.5862 23.9914 21.0529 24.1557 20.0709 24.2002C19.0085 24.2488 18.6901 24.259 16 24.259C13.3098 24.259 12.9913 24.2488 11.9291 24.2002C10.9471 24.1557 10.4135 23.9914 10.0586 23.8534C9.58836 23.6707 9.25272 23.4524 8.90024 23.0999C8.54777 22.7474 8.32946 22.4118 8.1467 21.9415C8.00875 21.5866 7.84471 21.0531 7.79968 20.071C7.75132 19.0086 7.74113 18.69 7.74113 16.0001C7.74113 13.3102 7.75132 12.9917 7.79968 11.9293C7.84471 10.947 8.00875 10.4137 8.1467 10.0586C8.32946 9.58853 8.54753 9.2529 8.90024 8.90042C9.25272 8.54795 9.58836 8.32964 10.0586 8.14688C10.4135 8.00892 10.9471 7.84488 11.9291 7.79984C12.9915 7.75149 13.3101 7.7413 16 7.7413Z" fill="white" fill-opacity="0.65"/>
<path d="M16.0003 19.3588C14.1457 19.3588 12.6421 17.8553 12.6421 16.0007C12.6421 14.1461 14.1457 12.6426 16.0003 12.6426C17.8548 12.6426 19.3584 14.1461 19.3584 16.0007C19.3584 17.8553 17.8548 19.3588 16.0003 19.3588ZM16.0003 10.8276C13.1432 10.8276 10.8271 13.1437 10.8271 16.0007C10.8271 18.8577 13.1432 21.1738 16.0003 21.1738C18.8573 21.1738 21.1734 18.8577 21.1734 16.0007C21.1734 13.1437 18.8573 10.8276 16.0003 10.8276Z" fill="white" fill-opacity="0.65"/>
<path d="M22.5865 10.6231C22.5865 11.2909 22.0453 11.832 21.3778 11.832C20.7101 11.832 20.1689 11.2909 20.1689 10.6231C20.1689 9.95541 20.7101 9.41425 21.3778 9.41425C22.0453 9.41425 22.5865 9.95541 22.5865 10.6231Z" fill="white" fill-opacity="0.65"/>
</svg>
