<svg width="159" height="29" viewBox="0 0 159 29" fill="none" xmlns="http://www.w3.org/2000/svg">
<g opacity="0.5">
<path d="M38.2659 24.1411H42.737V19.3891L44.2961 17.7566L48.4143 24.1411H53.5326L47.3259 14.6664L53.3267 8.51506H47.973L42.737 14.1999V2.85938H38.2659V24.1411Z" fill="#1A1B1F"/>
<path d="M54.4973 24.1411H58.9685V15.4243C58.9685 13.3253 60.0569 12.2466 61.763 12.2466C63.4691 12.2466 64.4692 13.3253 64.4692 15.4243V24.1411H68.9404V14.025C68.9404 10.4392 66.9695 8.22353 63.5868 8.22353C61.3217 8.22353 59.998 9.41881 58.9685 10.7307V8.51506H54.4973V24.1411Z" fill="#1A1B1F"/>
<path d="M79.3843 24.4909C84.2967 24.4909 87.9443 20.8468 87.9443 16.3572C87.9443 11.8094 84.3262 8.22353 79.4432 8.22353C74.5307 8.22353 70.8832 11.8677 70.8832 16.3572C70.8832 20.9051 74.5013 24.4909 79.3843 24.4909ZM79.4432 20.6719C76.9722 20.6719 75.2956 18.6603 75.2956 16.3572C75.2956 13.9958 76.8252 12.0426 79.3843 12.0426C81.8552 12.0426 83.5319 14.0541 83.5319 16.3572C83.5319 18.7186 82.0023 20.6719 79.4432 20.6719Z" fill="#1A1B1F"/>
<path d="M92.8176 24.2577H96.8181L99.9068 14.6664L102.937 24.2577H106.967L111.879 8.51506H107.437L104.849 18.019L101.848 8.45676H97.9948L95.0238 17.9898L92.494 8.51506H87.964L92.8176 24.2577Z" fill="#1A1B1F"/>
<path d="M120.143 24.4909C122.996 24.4909 125.114 23.3831 126.585 21.5756L124.026 19.3308C122.79 20.4678 121.702 20.9343 120.202 20.9343C118.201 20.9343 116.79 19.8847 116.348 17.8732H127.32C127.35 17.465 127.379 17.0569 127.379 16.7071C127.379 12.2758 124.967 8.22353 119.702 8.22353C115.113 8.22353 111.907 11.8968 111.907 16.3572C111.907 21.1966 115.407 24.4909 120.143 24.4909ZM116.289 15.1036C116.642 13.0921 117.848 11.7802 119.702 11.7802C121.584 11.7802 122.761 13.1212 123.026 15.1036H116.289Z" fill="#1A1B1F"/>
<path d="M129.741 24.1411H134.212V2.85938H129.741V24.1411Z" fill="#1A1B1F"/>
<path d="M137.44 24.1411H141.912V2.85938H137.44V24.1411Z" fill="#1A1B1F"/>
<path d="M149.405 24.4326C151.582 24.4326 153.082 23.6455 154.171 22.4502V24.1411H158.495V15.0745C158.495 12.9755 157.965 11.2554 156.789 10.0893C155.671 8.98151 153.906 8.34014 151.465 8.34014C148.788 8.34014 147.082 8.83575 145.346 9.59373L146.464 12.9755C147.905 12.4507 149.111 12.13 150.817 12.13C153.053 12.13 154.2 13.1504 154.2 14.987V15.2494C153.082 14.8704 151.935 14.608 150.347 14.608C146.611 14.608 143.993 16.1823 143.993 19.5932C143.993 22.7417 146.435 24.4326 149.405 24.4326ZM150.759 21.3715C149.317 21.3715 148.317 20.6719 148.317 19.4766C148.317 18.019 149.494 17.261 151.406 17.261C152.494 17.261 153.494 17.4942 154.259 17.844V18.6312C154.259 20.2346 152.847 21.3715 150.759 21.3715Z" fill="#1A1B1F"/>
<path fill-rule="evenodd" clip-rule="evenodd" d="M12.4853 14.2283C12.4853 10.2488 10.6847 6.78907 7.77244 4.80684C6.64616 4.04015 5.37029 3.61761 4.22087 3.38835C3.80873 3.30663 3.38356 3.31715 2.976 3.41915C2.56843 3.52115 2.18862 3.71209 1.86394 3.97822C1.53925 4.24434 1.27779 4.57901 1.09838 4.95812C0.918968 5.33722 0.826083 5.75132 0.826422 6.17056C0.825069 6.82054 1.04814 7.45115 1.45809 7.9563C1.86805 8.46145 2.43988 8.81031 3.07737 8.94418C3.76078 9.08538 4.36132 9.27813 4.79934 9.50631C4.79934 9.50631 7.80257 10.7358 7.88275 14.129C7.88275 14.1745 7.88275 14.2206 7.88275 14.2675C7.88275 14.3126 7.88275 14.3583 7.88275 14.4034C7.80634 17.6865 4.99845 18.9895 4.99845 18.9895C4.99845 18.9895 4.36401 19.3906 3.04185 19.673C2.41633 19.8048 1.8551 20.1468 1.45196 20.6419C1.04882 21.137 0.828198 21.7551 0.826961 22.3929C0.827319 22.8094 0.921426 23.2204 1.10233 23.5957C1.28323 23.971 1.54631 24.301 1.87214 24.5612C2.19798 24.8215 2.57824 25.0054 2.98486 25.0994C3.39147 25.1934 3.81406 25.1951 4.22141 25.1043C5.79898 24.7603 7.27853 24.0659 8.55002 23.0727C11.0646 21.1098 12.4853 17.8417 12.4853 14.2283Z" fill="#1A1B1F" fill-opacity="0.25"/>
<path fill-rule="evenodd" clip-rule="evenodd" d="M14.929 16.7129C10.9404 16.7129 7.47335 18.5094 5.48662 21.4151C4.71819 22.5388 4.2947 23.8118 4.06438 24.9586C3.98258 25.3698 3.99319 25.7939 4.09547 26.2005C4.19774 26.6071 4.38912 26.9861 4.65582 27.31C4.92253 27.6339 5.25792 27.8948 5.63784 28.0738C6.01776 28.2528 6.43274 28.3456 6.8529 28.3453C7.50421 28.3467 8.13614 28.1243 8.64241 27.7155C9.14869 27.3067 9.49843 26.7364 9.63282 26.1006C9.77488 25.4187 9.96806 24.8195 10.1968 24.3825C10.1968 24.3825 11.4285 21.3861 14.8294 21.3061H14.9682C15.014 21.3061 15.0597 21.3061 15.1049 21.3061C18.3955 21.3818 19.7021 24.1828 19.7021 24.1828C19.7021 24.1828 20.1035 24.8158 20.3871 26.1349C20.5192 26.759 20.862 27.319 21.3582 27.7212C21.8544 28.1234 22.4739 28.3436 23.1132 28.3448C23.5306 28.3444 23.9426 28.2505 24.3187 28.07C24.6949 27.8895 25.0256 27.6271 25.2865 27.302C25.5474 26.9769 25.7318 26.5975 25.8261 26.1918C25.9203 25.7861 25.9221 25.3645 25.8312 24.958C25.486 23.3837 24.7897 21.9071 23.7939 20.6382C21.8265 18.1292 18.551 16.7129 14.929 16.7129Z" fill="#1A1B1F"/>
<path fill-rule="evenodd" clip-rule="evenodd" d="M17.4182 14.2783C17.4182 18.2578 19.2193 21.717 22.1316 23.6993C23.2579 24.4659 24.5337 24.8885 25.6832 25.1183C26.0953 25.2 26.5205 25.1895 26.928 25.0875C27.3356 24.9855 27.7154 24.7945 28.0401 24.5284C28.3648 24.2623 28.6262 23.9276 28.8057 23.5485C28.9851 23.1694 29.0779 22.7553 29.0776 22.3361C29.079 21.6862 28.856 21.0556 28.4461 20.5505C28.0363 20.0453 27.4646 19.6964 26.8272 19.5624C26.1443 19.4207 25.5433 19.228 25.1052 18.9998C25.1052 18.9998 22.1025 17.7708 22.0223 14.3776C22.0223 14.3314 22.0223 14.2853 22.0223 14.2391C22.0223 14.1929 22.0223 14.1478 22.0223 14.1027C22.0982 10.8196 24.9056 9.516 24.9056 9.516C24.9056 9.516 25.5395 9.11547 26.8622 8.83253C27.4876 8.70064 28.0488 8.3586 28.4519 7.86355C28.8551 7.36851 29.0757 6.75044 29.0771 6.1126C29.0767 5.69615 28.9826 5.28509 28.8017 4.90979C28.6208 4.53448 28.3577 4.20449 28.0319 3.94419C27.7061 3.68389 27.3258 3.49992 26.9192 3.40585C26.5126 3.31179 26.09 3.31004 25.6826 3.40073C24.1047 3.74514 22.6248 4.43991 21.3529 5.43342C18.8394 7.39418 17.4182 10.6644 17.4182 14.2783Z" fill="#1A1B1F" fill-opacity="0.75"/>
<path fill-rule="evenodd" clip-rule="evenodd" d="M14.9733 11.7912C18.9618 11.7912 22.4295 9.99419 24.4162 7.0885C25.1846 5.96477 25.6081 4.69178 25.8379 3.54497C25.9198 3.13377 25.9093 2.70956 25.807 2.30291C25.7048 1.89627 25.5134 1.51732 25.2467 1.19337C24.98 0.869425 24.6445 0.608549 24.2646 0.429546C23.8846 0.250543 23.4696 0.15787 23.0494 0.158209C22.398 0.156933 21.7661 0.379454 21.2598 0.788359C20.7535 1.19726 20.4038 1.76762 20.2694 2.40352C20.1279 3.08484 19.9347 3.68456 19.706 4.12159C19.706 4.12159 18.4738 7.11749 15.0729 7.19749C15.0271 7.19749 14.9808 7.19749 14.934 7.19749C14.8872 7.19749 14.8431 7.19749 14.7979 7.19749C11.5062 7.12447 10.2007 4.32132 10.2007 4.32132C10.2007 4.32132 9.79876 3.68832 9.51517 2.36916C9.38298 1.7451 9.04017 1.1852 8.544 0.782989C8.04783 0.380778 7.42836 0.160616 6.78907 0.159283C6.37168 0.15966 5.95969 0.253559 5.58353 0.434048C5.20736 0.614538 4.87663 0.877009 4.61574 1.20209C4.35485 1.52717 4.17046 1.90656 4.07618 2.31225C3.98191 2.71794 3.98015 3.13958 4.07104 3.54604C4.41588 5.12055 5.11227 6.59716 6.10835 7.86592C8.07625 10.3732 11.3518 11.7912 14.9733 11.7912Z" fill="#1A1B1F" fill-opacity="0.5"/>
</g>
</svg>
