<svg width="180" height="106" viewBox="0 0 180 106" fill="none" xmlns="http://www.w3.org/2000/svg">
<g opacity="0.5">
<path d="M48.2659 63.1411H52.737V58.3891L54.2961 56.7566L58.4143 63.1411H63.5326L57.3259 53.6664L63.3267 47.5151H57.973L52.737 53.1999V41.8594H48.2659V63.1411Z" fill="#1A1B1F"/>
<path d="M64.4973 63.1411H68.9685V54.4243C68.9685 52.3253 70.0569 51.2466 71.763 51.2466C73.4691 51.2466 74.4692 52.3253 74.4692 54.4243V63.1411H78.9404V53.025C78.9404 49.4392 76.9695 47.2235 73.5867 47.2235C71.3217 47.2235 69.998 48.4188 68.9685 49.7307V47.5151H64.4973V63.1411Z" fill="#1A1B1F"/>
<path d="M89.3843 63.4909C94.2967 63.4909 97.9443 59.8468 97.9443 55.3572C97.9443 50.8094 94.3262 47.2235 89.4432 47.2235C84.5307 47.2235 80.8832 50.8677 80.8832 55.3572C80.8832 59.9051 84.5013 63.4909 89.3843 63.4909ZM89.4432 59.6719C86.9722 59.6719 85.2956 57.6603 85.2956 55.3572C85.2956 52.9958 86.8252 51.0426 89.3843 51.0426C91.8552 51.0426 93.5319 53.0541 93.5319 55.3572C93.5319 57.7186 92.0023 59.6719 89.4432 59.6719Z" fill="#1A1B1F"/>
<path d="M102.818 63.2577H106.818L109.907 53.6664L112.937 63.2577H116.967L121.879 47.5151H117.437L114.849 57.019L111.848 47.4568H107.995L105.024 56.9898L102.494 47.5151H97.964L102.818 63.2577Z" fill="#1A1B1F"/>
<path d="M130.143 63.4909C132.996 63.4909 135.114 62.3831 136.585 60.5756L134.026 58.3308C132.79 59.4678 131.702 59.9343 130.202 59.9343C128.201 59.9343 126.79 58.8847 126.348 56.8732H137.32C137.35 56.465 137.379 56.0569 137.379 55.7071C137.379 51.2758 134.967 47.2235 129.702 47.2235C125.113 47.2235 121.907 50.8968 121.907 55.3572C121.907 60.1966 125.407 63.4909 130.143 63.4909ZM126.289 54.1036C126.642 52.0921 127.848 50.7802 129.702 50.7802C131.584 50.7802 132.761 52.1212 133.026 54.1036H126.289Z" fill="#1A1B1F"/>
<path d="M139.741 63.1411H144.212V41.8594H139.741V63.1411Z" fill="#1A1B1F"/>
<path d="M147.44 63.1411H151.912V41.8594H147.44V63.1411Z" fill="#1A1B1F"/>
<path d="M159.405 63.4326C161.582 63.4326 163.082 62.6455 164.171 61.4502V63.1411H168.495V54.0745C168.495 51.9755 167.965 50.2554 166.789 49.0893C165.671 47.9815 163.906 47.3401 161.465 47.3401C158.788 47.3401 157.082 47.8357 155.346 48.5937L156.464 51.9755C157.905 51.4507 159.111 51.13 160.817 51.13C163.053 51.13 164.2 52.1504 164.2 53.987V54.2494C163.082 53.8704 161.935 53.608 160.347 53.608C156.611 53.608 153.993 55.1823 153.993 58.5932C153.993 61.7417 156.435 63.4326 159.405 63.4326ZM160.759 60.3715C159.317 60.3715 158.317 59.6719 158.317 58.4766C158.317 57.019 159.494 56.261 161.406 56.261C162.494 56.261 163.494 56.4942 164.259 56.844V57.6312C164.259 59.2346 162.847 60.3715 160.759 60.3715Z" fill="#1A1B1F"/>
<path fill-rule="evenodd" clip-rule="evenodd" d="M22.4853 53.2283C22.4853 49.2488 20.6847 45.7891 17.7724 43.8068C16.6462 43.0401 15.3703 42.6176 14.2209 42.3884C13.8087 42.3066 13.3836 42.3172 12.976 42.4192C12.5684 42.5212 12.1886 42.7121 11.8639 42.9782C11.5393 43.2443 11.2778 43.579 11.0984 43.9581C10.919 44.3372 10.8261 44.7513 10.8264 45.1706C10.8251 45.8205 11.0481 46.4512 11.4581 46.9563C11.868 47.4615 12.4399 47.8103 13.0774 47.9442C13.7608 48.0854 14.3613 48.2781 14.7993 48.5063C14.7993 48.5063 17.8026 49.7358 17.8828 53.129C17.8828 53.1745 17.8828 53.2206 17.8828 53.2675C17.8828 53.3126 17.8828 53.3583 17.8828 53.4034C17.8063 56.6865 14.9984 57.9895 14.9984 57.9895C14.9984 57.9895 14.364 58.3906 13.0419 58.673C12.4163 58.8048 11.8551 59.1468 11.452 59.6419C11.0488 60.137 10.8282 60.7551 10.827 61.3929C10.8273 61.8094 10.9214 62.2204 11.1023 62.5957C11.2832 62.971 11.5463 63.301 11.8721 63.5612C12.198 63.8215 12.5782 64.0054 12.9849 64.0994C13.3915 64.1934 13.8141 64.1951 14.2214 64.1043C15.799 63.7603 17.2785 63.0659 18.55 62.0727C21.0646 60.1098 22.4853 56.8417 22.4853 53.2283Z" fill="#1A1B1F" fill-opacity="0.25"/>
<path fill-rule="evenodd" clip-rule="evenodd" d="M24.929 55.7129C20.9404 55.7129 17.4734 57.5094 15.4866 60.415C14.7182 61.5388 14.2947 62.8118 14.0644 63.9586C13.9826 64.3698 13.9932 64.7939 14.0955 65.2005C14.1977 65.6071 14.3891 65.9861 14.6558 66.31C14.9225 66.6339 15.2579 66.8948 15.6378 67.0738C16.0178 67.2528 16.4327 67.3456 16.8529 67.3453C17.5042 67.3467 18.1361 67.1243 18.6424 66.7155C19.1487 66.3067 19.4984 65.7364 19.6328 65.1006C19.7749 64.4187 19.9681 63.8195 20.1968 63.3825C20.1968 63.3825 21.4285 60.3861 24.8294 60.3061H24.9682C25.014 60.3061 25.0597 60.3061 25.1049 60.3061C28.3955 60.3818 29.7021 63.1828 29.7021 63.1828C29.7021 63.1828 30.1035 63.8158 30.3871 65.1349C30.5192 65.759 30.862 66.319 31.3582 66.7212C31.8544 67.1234 32.4739 67.3436 33.1132 67.3448C33.5306 67.3444 33.9426 67.2505 34.3187 67.07C34.6949 66.8895 35.0256 66.6271 35.2865 66.302C35.5474 65.9769 35.7318 65.5975 35.8261 65.1918C35.9203 64.7861 35.9221 64.3645 35.8312 63.958C35.486 62.3837 34.7897 60.9071 33.7939 59.6382C31.8265 57.1292 28.551 55.7129 24.929 55.7129Z" fill="#1A1B1F"/>
<path fill-rule="evenodd" clip-rule="evenodd" d="M27.4182 53.2783C27.4182 57.2578 29.2193 60.717 32.1316 62.6993C33.2579 63.4659 34.5337 63.8885 35.6832 64.1183C36.0953 64.2 36.5205 64.1895 36.928 64.0875C37.3356 63.9855 37.7154 63.7945 38.0401 63.5284C38.3648 63.2623 38.6262 62.9276 38.8057 62.5485C38.9851 62.1694 39.0779 61.7553 39.0776 61.3361C39.079 60.6862 38.856 60.0556 38.4461 59.5505C38.0363 59.0453 37.4646 58.6964 36.8272 58.5624C36.1443 58.4207 35.5433 58.228 35.1052 57.9998C35.1052 57.9998 32.1025 56.7708 32.0223 53.3776C32.0223 53.3314 32.0223 53.2853 32.0223 53.2391C32.0223 53.1929 32.0223 53.1478 32.0223 53.1027C32.0982 49.8196 34.9056 48.516 34.9056 48.516C34.9056 48.516 35.5395 48.1155 36.8622 47.8325C37.4876 47.7006 38.0488 47.3586 38.4519 46.8636C38.8551 46.3685 39.0757 45.7504 39.0771 45.1126C39.0767 44.6961 38.9826 44.2851 38.8017 43.9098C38.6208 43.5345 38.3577 43.2045 38.0319 42.9442C37.7061 42.6839 37.3258 42.4999 36.9192 42.4059C36.5126 42.3118 36.09 42.31 35.6826 42.4007C34.1047 42.7451 32.6248 43.4399 31.3529 44.4334C28.8394 46.3942 27.4182 49.6644 27.4182 53.2783Z" fill="#1A1B1F" fill-opacity="0.75"/>
<path fill-rule="evenodd" clip-rule="evenodd" d="M24.9733 50.7912C28.9618 50.7912 32.4295 48.9942 34.4162 46.0885C35.1846 44.9648 35.6081 43.6918 35.8379 42.545C35.9198 42.1338 35.9093 41.7096 35.807 41.3029C35.7048 40.8963 35.5134 40.5173 35.2467 40.1934C34.98 39.8694 34.6445 39.6085 34.2646 39.4295C33.8846 39.2505 33.4696 39.1579 33.0494 39.1582C32.398 39.1569 31.7661 39.3795 31.2598 39.7884C30.7535 40.1973 30.4038 40.7676 30.2694 41.4035C30.1279 42.0848 29.9347 42.6846 29.706 43.1216C29.706 43.1216 28.4738 46.1175 25.0729 46.1975C25.0271 46.1975 24.9808 46.1975 24.934 46.1975C24.8872 46.1975 24.8431 46.1975 24.7979 46.1975C21.5062 46.1245 20.2007 43.3213 20.2007 43.3213C20.2007 43.3213 19.7988 42.6883 19.5152 41.3692C19.383 40.7451 19.0402 40.1852 18.544 39.783C18.0478 39.3808 17.4284 39.1606 16.7891 39.1593C16.3717 39.1597 15.9597 39.2536 15.5835 39.434C15.2074 39.6145 14.8766 39.877 14.6157 40.2021C14.3548 40.5272 14.1705 40.9066 14.0762 41.3122C13.9819 41.7179 13.9801 42.1396 14.071 42.546C14.4159 44.1205 15.1123 45.5972 16.1084 46.8659C18.0762 49.3732 21.3518 50.7912 24.9733 50.7912Z" fill="#1A1B1F" fill-opacity="0.5"/>
</g>
</svg>
