<svg width="32" height="32" viewBox="0 0 32 32" fill="none" xmlns="http://www.w3.org/2000/svg">
<path d="M17.2382 13.8176C17.5008 13.5225 17.7175 13.2226 17.9875 12.9683C18.8171 12.1863 19.7987 11.7916 20.9445 11.8014C21.5743 11.8066 22.197 11.8521 22.8041 12.0277C24.1929 12.4293 25 13.3852 25.3847 14.7418C25.6734 15.7592 25.7265 16.8038 25.7284 17.8515C25.7322 20.0618 25.722 22.272 25.7267 24.4824C25.7272 24.6893 25.6694 24.7436 25.4655 24.7417C24.327 24.7324 23.1881 24.7322 22.0496 24.7421C21.8493 24.7438 21.8059 24.6817 21.8066 24.4925C21.813 22.3893 21.8144 20.2863 21.8078 18.1831C21.8059 17.6562 21.7725 17.1295 21.6246 16.617C21.3522 15.6731 20.6767 15.1922 19.6877 15.2443C18.3373 15.3157 17.6352 15.9843 17.4631 17.3573C17.4219 17.6853 17.4025 18.0134 17.4027 18.3438C17.4046 20.3892 17.4006 22.4346 17.4081 24.4797C17.4089 24.6838 17.3579 24.744 17.1495 24.7421C16.0028 24.732 14.8555 24.7331 13.7087 24.7412C13.525 24.7426 13.4717 24.6931 13.4719 24.507C13.4771 20.4577 13.4771 16.4082 13.4717 12.3586C13.4714 12.1583 13.5371 12.1119 13.7265 12.1133C14.8157 12.1213 15.9051 12.1223 16.9941 12.1126C17.1946 12.1109 17.2463 12.1756 17.2418 12.3655C17.2306 12.8493 17.2382 13.3335 17.2382 13.8176Z" fill="white" fill-opacity="0.65"/>
<path d="M10.9994 18.4448C10.9994 20.448 10.996 22.4514 11.0041 24.4548C11.005 24.6774 10.9496 24.7447 10.7192 24.7421C9.58116 24.7296 8.44267 24.7326 7.30442 24.7405C7.12214 24.7419 7.06715 24.6961 7.06738 24.5077C7.07284 20.4515 7.07236 16.3953 7.06833 12.3392C7.0681 12.1713 7.10887 12.1116 7.28712 12.1125C8.44172 12.1201 9.59657 12.1223 10.7512 12.1114C10.973 12.109 11.0034 12.1953 11.0029 12.3854C10.9975 14.4052 10.9994 16.425 10.9994 18.4448Z" fill="white" fill-opacity="0.65"/>
<path d="M11.3137 8.09405C11.3146 9.35177 10.2937 10.3765 9.03909 10.377C7.8001 10.3774 6.77064 9.35176 6.76661 8.11348C6.76235 6.86169 7.79133 5.83082 9.04359 5.832C10.2873 5.83319 11.3123 6.85458 11.3137 8.09405Z" fill="white" fill-opacity="0.65"/>
</svg>
