<svg width="32" height="32" viewBox="0 0 32 32" fill="none" xmlns="http://www.w3.org/2000/svg">
<path d="M10.5509 23.0986C14.4447 23.0986 17.6015 19.9203 17.6015 15.9996C17.6015 12.079 14.445 8.90039 10.5509 8.90039C6.65675 8.90039 3.5 12.0796 3.5 15.9996C3.5 19.9196 6.657 23.0986 10.5509 23.0986Z" fill="white" fill-opacity="0.65"/>
<path d="M21.8109 22.683C23.7579 22.683 25.3363 19.6901 25.3363 15.9996H25.3361C25.3361 12.3082 23.7577 9.3162 21.8106 9.3162C19.8636 9.3162 18.2854 12.3091 18.2854 15.9996C18.2854 19.6901 19.8638 22.683 21.8109 22.683Z" fill="white" fill-opacity="0.65"/>
<path d="M27.2601 21.9869C27.9449 21.9869 28.5 19.3054 28.5 15.9996C28.5 12.6929 27.9447 10.0124 27.2601 10.0124C26.5754 10.0124 26.0204 12.6931 26.0204 15.9996C26.0204 19.3061 26.5752 21.9869 27.2601 21.9869Z" fill="white" fill-opacity="0.65"/>
</svg>
