<svg width="48" height="48" viewBox="0 0 48 48" fill="none" xmlns="http://www.w3.org/2000/svg">
<path d="M27.85 18.7722V19.4589L24.1668 17L20.0683 18.7992L0 30.3927L24.0174 44.2513L48 30.3866L27.85 18.7722Z" fill="black"/>
<path d="M41 29.2422V31.9943L24.0038 41.6058L7 31.9967L7.00844 29.245L24.0036 38.8559L41 29.2422Z" fill="#3FC5B3"/>
<path d="M27.606 21.9593L34.6312 26.4531L35.7411 27.1818L36.8787 26.4531L28.3543 21L27.606 21.9593Z" fill="#3FC5B3"/>
<path d="M36.1402 26L23.9903 33.5057L12.95 26.7854L21.0078 21.8994L20.2668 21L11.794 26.158L7 29.0722L8.07203 29.7266L11.856 27.4699L11.8586 27.4717L11.8615 29.0691L23.9956 36.4545L36.1178 29.0851L36.1292 27.4749L36.1402 27.4691L39.885 29.7472L41 29L36.1402 26Z" fill="#3FC5B3"/>
<path d="M26.7468 23.0634L25.9635 23.9214L28.4998 25.2923L24.5155 27.4602L20.533 25.2936L23.0747 23.9173L22.2891 23.0605L19.3635 24.6572V27.4603L24.5155 30.2727L29.6666 27.4603V24.6572L26.7468 23.0634Z" fill="#3FC5B3"/>
<path d="M24.6356 3L19.0007 6.25269L20.2895 6.99334L21.5823 6.24974L24.6356 4.48721L27.6786 6.24435L28.8929 7.03546L30.2695 6.25268L24.6356 3Z" fill="#FFDC00"/>
<path d="M24.6437 25.7695L30.2687 19.2637V6.25195L24.6074 9.47179L19 6.25195V19.2637L24.6437 25.7695Z" fill="#FFDC00"/>
</svg>
