<svg width="180" height="106" viewBox="0 0 180 106" fill="none" xmlns="http://www.w3.org/2000/svg">
<g opacity="0.5">
<path fill-rule="evenodd" clip-rule="evenodd" d="M46.3781 87.5313C46.3303 87.7915 46.2891 88.0572 46.2546 88.3271C46.0066 88.3716 45.7798 88.4021 45.5729 88.4207C45.3673 88.4374 45.1906 88.4469 45.0425 88.4469C44.7167 88.4469 44.4055 88.4001 44.1086 88.3063C43.8118 88.2125 43.5448 88.0653 43.307 87.8632C43.0689 87.6613 42.8966 87.417 42.7909 87.1291C42.684 86.8413 42.6309 86.5274 42.6309 86.186C42.6309 85.8159 42.6953 85.4735 42.8232 85.1592C42.951 84.8442 43.1356 84.5794 43.3757 84.3623C43.6148 84.1466 43.8997 83.9857 44.2276 83.8796C44.5554 83.7733 44.897 83.7207 45.2537 83.7207C45.6051 83.7207 45.99 83.7618 46.407 83.844C46.4136 84.0425 46.4206 84.1832 46.427 84.2654L46.4492 84.6242C46.2034 84.5577 46.0002 84.512 45.8365 84.4867C45.6741 84.463 45.5184 84.4502 45.3708 84.4502C45.1381 84.4502 44.9159 84.4867 44.7014 84.5586C44.4876 84.632 44.2986 84.7475 44.1342 84.9046C43.9708 85.0635 43.845 85.2542 43.7573 85.4793C43.6693 85.7031 43.6248 85.9359 43.6248 86.1791C43.6248 86.4691 43.6793 86.7285 43.7882 86.9577C43.8962 87.1887 44.0708 87.3746 44.3109 87.5172C44.5513 87.6602 44.8481 87.7307 45.2016 87.7307C45.5296 87.7307 45.9222 87.6644 46.3781 87.5313V87.5313ZM47.0555 88.3667C47.0877 87.9901 47.1279 87.3129 47.1744 86.3342C47.2212 85.3569 47.2491 84.512 47.2601 83.8006C47.4859 83.8053 47.647 83.8073 47.7429 83.8073C47.8705 83.8073 48.0272 83.8053 48.2121 83.8006L48.1341 85.0212L48.0209 87.7444L48.0073 88.3667C47.8296 88.3625 47.6782 88.36 47.5537 88.36C47.5127 88.36 47.3468 88.3625 47.0555 88.3667V88.3667ZM51.8215 87.6074C51.794 87.7388 51.7538 87.9753 51.7016 88.3166C51.4669 88.3681 51.269 88.4021 51.1091 88.4207C50.9478 88.4374 50.7864 88.4469 50.623 88.4469C50.3384 88.4469 50.0837 88.4182 49.8592 88.36C49.6346 88.3018 49.4375 88.1957 49.2675 88.0405C49.0985 87.8849 48.9741 87.6954 48.8929 87.4706C48.8128 87.2446 48.7727 87.008 48.7727 86.7603C48.7727 86.4864 48.8194 86.2201 48.9128 85.9632C49.0064 85.7053 49.1373 85.495 49.3056 85.3307C49.4731 85.1662 49.6656 85.0509 49.8802 84.9827C50.095 84.9153 50.3205 84.8806 50.5553 84.8806C50.7765 84.8806 50.9867 84.9095 51.1866 84.9666C51.3871 85.0236 51.5548 85.1158 51.6904 85.2452C51.8261 85.3754 51.9297 85.5308 52.0029 85.7123C52.0752 85.8938 52.1118 86.097 52.1118 86.3194C52.1118 86.4246 52.1008 86.5318 52.0796 86.6437L49.6912 86.6475C49.6869 86.7294 49.6845 86.7957 49.6845 86.8449C49.6845 86.9944 49.7101 87.1314 49.7603 87.2558C49.8091 87.3802 49.8824 87.4865 49.9781 87.5734C50.0738 87.6613 50.187 87.7251 50.3195 87.7663C50.4527 87.8075 50.5831 87.828 50.7107 87.828C50.8611 87.828 51.0232 87.8106 51.1979 87.7779C51.3725 87.7444 51.5804 87.6875 51.8215 87.6074V87.6074ZM49.7168 86.2554L51.2423 86.2592C51.2423 86.1516 51.239 86.0728 51.2324 86.0213C51.2257 85.9701 51.2112 85.9119 51.1889 85.8457C51.1656 85.7794 51.1344 85.7224 51.0956 85.672C51.0567 85.6218 51.0109 85.5798 50.9588 85.5464C50.9066 85.5135 50.8465 85.4871 50.7777 85.469C50.7097 85.4518 50.6363 85.4424 50.5573 85.4424C50.4662 85.4424 50.3783 85.4573 50.2916 85.4862C50.206 85.5147 50.1272 85.5581 50.0561 85.6127C49.9837 85.6689 49.9257 85.7315 49.8814 85.8011C49.8367 85.8696 49.8035 85.9358 49.7825 85.9996C49.7603 86.0636 49.739 86.1484 49.7168 86.2554V86.2554ZM52.8974 85.7109C52.9273 85.55 52.9462 85.4381 52.9542 85.373C52.9618 85.3078 52.9751 85.2096 52.9951 85.0782C53.2909 85.0064 53.551 84.9574 53.7768 84.9276C54.0025 84.8992 54.2215 84.8842 54.4316 84.8842C54.6707 84.8842 54.8899 84.9126 55.0902 84.9697C55.2891 85.0268 55.4459 85.1172 55.5594 85.2416C55.6714 85.3674 55.7284 85.5464 55.7284 85.7803C55.7284 85.9085 55.7105 86.2315 55.676 86.7523C55.6404 87.273 55.6205 87.812 55.6139 88.3667C55.4481 88.3625 55.297 88.36 55.1579 88.36C55.0255 88.36 54.8699 88.3625 54.692 88.3667C54.7209 88.0973 54.7431 87.7846 54.7608 87.4306L54.8032 86.5969C54.7209 86.6531 54.6575 86.6916 54.6143 86.7147C54.5708 86.7361 54.5219 86.7569 54.4675 86.7764C54.4127 86.7943 54.3174 86.8241 54.1806 86.863C54.0435 86.902 53.9338 86.9362 53.8512 86.9646C53.7691 86.9944 53.6944 87.0264 53.6277 87.0642C53.5623 87.1007 53.5055 87.1417 53.46 87.1873C53.4141 87.233 53.3809 87.2811 53.361 87.3312C53.3398 87.3814 53.3298 87.4353 53.3298 87.4934C53.3298 87.5871 53.3567 87.6683 53.4098 87.7356C53.4633 87.8039 53.53 87.8509 53.6101 87.8782C53.6901 87.9044 53.7845 87.9182 53.8937 87.9182C53.9637 87.9182 54.0371 87.9124 54.1135 87.901C54.1905 87.8907 54.2949 87.8621 54.425 87.8175C54.3795 87.9444 54.3261 88.134 54.2649 88.3862C54.1105 88.414 53.988 88.4298 53.897 88.4365C53.8057 88.4435 53.7213 88.4469 53.6422 88.4469C53.3687 88.4469 53.1441 88.409 52.9684 88.3327C52.7927 88.2571 52.6626 88.1376 52.5793 87.9717C52.4959 87.8075 52.4534 87.6407 52.4534 87.4742C52.4534 87.3782 52.4703 87.2831 52.5026 87.1895C52.5347 87.0958 52.5825 87.0092 52.646 86.9317C52.7094 86.8538 52.7905 86.7787 52.8904 86.7055C52.9907 86.6334 53.1352 86.5627 53.3241 86.4954C53.5134 86.4271 53.7624 86.3582 54.0737 86.2897C54.156 86.2715 54.2417 86.2498 54.3307 86.2245C54.4196 86.1986 54.4907 86.1733 54.5442 86.1494C54.5976 86.1243 54.6442 86.0925 54.683 86.0535C54.7219 86.0146 54.7508 85.9737 54.7687 85.9316C54.7876 85.8888 54.7963 85.8457 54.7963 85.8011C54.7963 85.7143 54.7687 85.64 54.7142 85.5809C54.6585 85.5203 54.5863 85.4782 54.4984 85.4554C54.4107 85.4312 54.3138 85.4197 54.2071 85.4197C53.8113 85.4197 53.3756 85.5169 52.8974 85.7109V85.7109ZM56.447 88.3667C56.4971 87.861 56.538 87.2912 56.5715 86.6612C56.6048 86.0294 56.6237 85.4641 56.628 84.9641C56.8283 84.9686 56.9883 84.9708 57.1075 84.9708C57.2487 84.9708 57.3988 84.9686 57.5578 84.9641L57.521 85.5327C57.5887 85.4348 57.6478 85.3569 57.699 85.2987C57.7501 85.2416 57.8146 85.1845 57.8948 85.1288C57.9736 85.0727 58.058 85.0281 58.148 84.9952C58.2382 84.961 58.3393 84.9343 58.4518 84.914C58.564 84.8943 58.6809 84.8842 58.8021 84.8842C58.9955 84.8842 59.1811 84.9095 59.358 84.9596C59.5347 85.01 59.6782 85.0899 59.7861 85.1982C59.895 85.3078 59.9671 85.4278 60.0017 85.5569C60.0362 85.6856 60.0541 85.823 60.0541 85.9678C60.0541 86.0282 60.0508 86.1243 60.0441 86.2554L59.9763 87.7184C59.9671 87.9205 59.9618 88.1376 59.9595 88.3667C59.7884 88.3625 59.6416 88.36 59.5204 88.36C59.3547 88.36 59.188 88.3625 59.021 88.3667C59.0387 88.1729 59.0599 87.8348 59.0857 87.3518C59.1123 86.8686 59.1246 86.549 59.1246 86.3928C59.1246 86.217 59.0978 86.0753 59.0433 85.9678C58.9888 85.8604 58.9054 85.7794 58.7909 85.7234C58.6763 85.6677 58.5541 85.64 58.4206 85.64C58.2904 85.64 58.1692 85.6653 58.056 85.7168C57.9437 85.768 57.8458 85.8434 57.7623 85.9414C57.6754 86.0424 57.6089 86.1654 57.5611 86.3125C57.511 86.4691 57.4744 86.7261 57.4499 87.086C57.4287 87.4044 57.411 87.8317 57.3974 88.3667C57.231 88.3625 57.0796 88.36 56.9451 88.36C56.8083 88.36 56.6426 88.3625 56.447 88.3667V88.3667ZM62.5105 88.3667C62.5473 87.9295 62.5742 87.5528 62.5921 87.2365C62.6174 86.7831 62.6463 86.1435 62.6785 85.3161C62.6998 84.7495 62.7107 84.3478 62.7107 84.1114V83.8006C62.981 83.8053 63.1578 83.8073 63.2423 83.8073C63.2989 83.8073 63.4672 83.8053 63.7451 83.8006L63.6449 85.6071L63.5572 87.7721L63.5469 88.3667L63.0422 88.36C62.981 88.36 62.8043 88.3625 62.5105 88.3667V88.3667ZM63.6927 85.9509L64.4322 85.018L65.1061 84.1385C65.1539 84.0736 65.2339 83.9615 65.3472 83.8006L65.9333 83.8073C65.9575 83.8073 66.1445 83.8053 66.4938 83.8006L64.9948 85.6095L64.7414 85.9336L64.9459 86.235C64.9769 86.2771 65.1915 86.5672 65.5906 87.1052L66.5394 88.3667L65.9599 88.36C65.8576 88.36 65.6464 88.3625 65.325 88.3667L65.116 88.0324C65.0772 87.9675 65.0081 87.8621 64.9079 87.7148L64.0218 86.4166L63.6927 85.9509V85.9509ZM68.7523 84.8842C69.0013 84.8842 69.2405 84.9233 69.4696 84.9995C69.6997 85.0762 69.8933 85.1902 70.0534 85.3412C70.2124 85.4918 70.3326 85.6756 70.4137 85.8926C70.4937 86.1106 70.5336 86.3391 70.5336 86.5799C70.5336 86.8346 70.4915 87.0799 70.4071 87.3165C70.3224 87.5528 70.1989 87.7573 70.0388 87.9295C69.8777 88.1031 69.6775 88.2322 69.4374 88.3177C69.1973 88.4035 68.9413 88.4469 68.6702 88.4469C68.4186 88.4469 68.1785 88.4081 67.9519 88.3316C67.7248 88.2548 67.5315 88.1384 67.3701 87.9854C67.2101 87.8316 67.0876 87.6441 67.0045 87.4236C66.9211 87.2023 66.8787 86.9713 66.8787 86.7305C66.8787 86.4853 66.9165 86.2512 66.9932 86.0283C67.0687 85.8058 67.1879 85.6071 67.3489 85.4325C67.5113 85.2588 67.7182 85.1239 67.9696 85.0281C68.222 84.9321 68.4822 84.8842 68.7523 84.8842V84.8842ZM68.7523 85.5742C68.5633 85.5742 68.3943 85.6205 68.2452 85.7154C68.0964 85.8101 67.9862 85.9519 67.9128 86.139C67.8404 86.3262 67.8038 86.5309 67.8038 86.7511C67.8038 86.9454 67.834 87.1175 67.8938 87.2694C67.9529 87.4216 68.0506 87.5438 68.1864 87.6371C68.3222 87.7307 68.4833 87.7779 68.6702 87.7779C68.8615 87.7779 69.029 87.7296 69.1737 87.6329C69.3184 87.5358 69.4261 87.3928 69.4995 87.2043C69.5718 87.0159 69.6084 86.808 69.6084 86.581C69.6084 86.3949 69.5808 86.227 69.524 86.0753C69.4673 85.9242 69.3729 85.802 69.2382 85.7109C69.1049 85.6196 68.9426 85.5742 68.7523 85.5742V85.5742ZM72.0229 88.3667C71.8795 87.8966 71.4949 86.7614 70.8666 84.9641C71.0578 84.9686 71.2223 84.9708 71.3611 84.9708C71.5092 84.9708 71.6603 84.9686 71.815 84.9641L72.5778 87.5172L72.6821 87.226L73.4151 85.3161C73.4496 85.2268 73.493 85.1091 73.5452 84.9641C73.723 84.9686 73.8809 84.9708 74.0201 84.9708C74.1612 84.9708 74.3223 84.9686 74.5026 84.9641L73.9709 86.1448L73.2025 87.935L73.0302 88.3667C72.8346 88.3625 72.6701 88.36 72.5376 88.36C72.3986 88.36 72.2275 88.3625 72.0229 88.3667ZM75.0232 85.7109C75.0534 85.55 75.0724 85.4381 75.0798 85.373C75.0877 85.3078 75.101 85.2096 75.1212 85.0782C75.4168 85.0064 75.6771 84.9574 75.9029 84.9276C76.1284 84.8992 76.3476 84.8842 76.5578 84.8842C76.7969 84.8842 77.0161 84.9126 77.216 84.9697C77.4152 85.0268 77.5719 85.1172 77.6853 85.2416C77.7975 85.3674 77.8545 85.5464 77.8545 85.7803C77.8545 85.9085 77.8366 86.2315 77.8021 86.7523C77.7666 87.273 77.7464 87.812 77.7397 88.3667C77.5743 88.3625 77.4229 88.36 77.2837 88.36C77.1515 88.36 76.9958 88.3625 76.8179 88.3667C76.8467 88.0973 76.869 87.7846 76.8869 87.4306L76.9291 86.5969C76.8467 86.6531 76.7836 86.6916 76.7401 86.7147C76.6969 86.7361 76.6478 86.7569 76.5933 86.7764C76.5389 86.7943 76.4432 86.8241 76.3064 86.863C76.1696 86.902 76.0594 86.9362 75.9773 86.9646C75.8952 86.9944 75.8206 87.0264 75.7538 87.0642C75.6883 87.1007 75.6316 87.1417 75.5858 87.1873C75.5403 87.233 75.5071 87.2811 75.4869 87.3312C75.4659 87.3814 75.4559 87.4353 75.4559 87.4934C75.4559 87.5871 75.4825 87.6683 75.536 87.7356C75.5891 87.8039 75.6559 87.8509 75.7361 87.8782C75.8159 87.9044 75.9106 87.9182 76.0195 87.9182C76.0896 87.9182 76.163 87.9124 76.2397 87.901C76.3167 87.8907 76.421 87.8621 76.5509 87.8175C76.5057 87.9444 76.4522 88.134 76.3908 88.3862C76.2363 88.414 76.1141 88.4298 76.0228 88.4365C75.9318 88.4435 75.8471 88.4469 75.7684 88.4469C75.4948 88.4469 75.27 88.409 75.0943 88.3327C74.9186 88.2571 74.7888 88.1376 74.7054 87.9717C74.6218 87.8075 74.5796 87.6407 74.5796 87.4742C74.5796 87.3782 74.5962 87.2831 74.6284 87.1895C74.6606 87.0958 74.7087 87.0092 74.7722 86.9317C74.8353 86.8538 74.9166 86.7787 75.0166 86.7055C75.1166 86.6334 75.2613 86.5627 75.4503 86.4954C75.6393 86.4271 75.8883 86.3582 76.1996 86.2897C76.2822 86.2715 76.3678 86.2498 76.4565 86.2245C76.5455 86.1986 76.6166 86.1733 76.67 86.1494C76.7235 86.1243 76.7703 86.0925 76.8092 86.0535C76.8481 86.0146 76.8769 85.9737 76.8948 85.9316C76.9135 85.8888 76.9224 85.8457 76.9224 85.8011C76.9224 85.7143 76.8948 85.64 76.8404 85.5809C76.7846 85.5203 76.7125 85.4782 76.6245 85.4554C76.5366 85.4312 76.4399 85.4197 76.3333 85.4197C75.9372 85.4197 75.5015 85.5169 75.0232 85.7109V85.7109ZM78.7731 84.3831C78.782 84.1535 78.7863 83.9765 78.7863 83.8543V83.7471C78.9843 83.7516 79.1444 83.754 79.2689 83.754C79.4382 83.754 79.596 83.7516 79.7415 83.7471C79.7348 83.8028 79.7305 83.8666 79.7282 83.9377L79.7116 84.3831C79.5469 84.3784 79.3945 84.3762 79.2556 84.3762C79.1167 84.3762 78.9554 84.3784 78.7731 84.3831ZM78.5964 88.3667C78.6286 88.0324 78.6519 87.7524 78.6652 87.5275C78.6864 87.1703 78.7063 86.759 78.7219 86.2921C78.7388 85.8262 78.7498 85.3835 78.7564 84.9641C78.97 84.9686 79.1288 84.9708 79.2354 84.9708C79.3323 84.9708 79.4914 84.9686 79.7105 84.9641C79.6804 85.3526 79.6561 85.7224 79.6371 86.0753C79.6192 86.4271 79.6059 86.831 79.597 87.2867C79.588 87.7412 79.5837 88.1018 79.5837 88.3667C79.3858 88.3625 79.228 88.36 79.1078 88.36C78.9956 88.36 78.8242 88.3625 78.5964 88.3667V88.3667ZM80.4381 88.3667C80.4467 88.2058 80.4593 87.9066 80.4736 87.4668L80.9684 87.4742C81.0116 87.4742 81.1541 87.4718 81.3952 87.4668C81.3842 87.6305 81.3752 87.7938 81.3699 87.9594L81.3499 88.3667L80.9226 88.36C80.906 88.36 80.7436 88.3625 80.4381 88.3667V88.3667ZM86.4773 85.7577C86.7775 85.7624 87.0644 85.7644 87.3381 85.7644C87.696 85.7644 87.994 85.7624 88.233 85.7577C88.1765 86.5043 88.1364 87.3337 88.1131 88.2459C87.7515 88.3202 87.426 88.3716 87.1355 88.401C86.8443 88.4319 86.5962 88.4469 86.3929 88.4469C86.0103 88.4469 85.6557 88.4059 85.3288 88.3233C85.0028 88.2403 84.7259 88.1067 84.5003 87.9213C84.2746 87.7365 84.1022 87.4934 83.9843 87.1907C83.8654 86.8883 83.8066 86.5694 83.8066 86.2326C83.8066 85.9452 83.8508 85.6677 83.9388 85.3994C84.0265 85.1319 84.1566 84.8867 84.329 84.6637C84.5014 84.4413 84.7103 84.2549 84.955 84.1065C85.1984 83.9583 85.4588 83.8579 85.7334 83.8028C86.0081 83.7482 86.2983 83.7207 86.6042 83.7207C87.0256 83.7207 87.5104 83.7789 88.0574 83.8941C88.0597 84.1488 88.072 84.4147 88.0929 84.6935C87.5804 84.5156 87.1168 84.4265 86.7018 84.4265C86.4351 84.4265 86.1827 84.465 85.9446 84.544C85.7079 84.6217 85.5023 84.7426 85.3299 84.9059C85.1575 85.0702 85.0264 85.2736 84.9361 85.5155C84.8461 85.7568 84.8005 86.0077 84.8005 86.2659C84.8005 86.5535 84.8517 86.8104 84.955 87.0376C85.0583 87.2639 85.232 87.4395 85.4743 87.5642C85.7178 87.6886 85.9971 87.7513 86.3116 87.7513C86.4261 87.7513 86.5617 87.7412 86.7184 87.7195C86.8742 87.6991 87.0379 87.6625 87.2068 87.6109L87.259 86.4369L87.002 86.4338C86.8565 86.4338 86.6719 86.4369 86.4484 86.4438C86.4686 86.1448 86.4773 85.9166 86.4773 85.7577V85.7577ZM88.9795 88.3667L89.0741 86.7775L89.0997 85.8535C89.104 85.6639 89.1063 85.4735 89.1063 85.2817C89.1063 85.2483 89.104 85.1425 89.0997 84.9641C89.3019 84.9686 89.4498 84.9708 89.5454 84.9708C89.6566 84.9708 89.8034 84.9686 89.9858 84.9641L89.9691 85.4357C90.0515 85.3161 90.1225 85.2255 90.1813 85.1673C90.2394 85.108 90.3061 85.0565 90.3785 85.0145C90.4516 84.9722 90.5317 84.9399 90.6207 84.9173C90.7109 84.8956 90.802 84.8842 90.8953 84.8842C90.982 84.8842 91.071 84.8956 91.1623 84.9173C91.1623 85.1253 91.1722 85.3877 91.1912 85.7067C91.0633 85.6711 90.9465 85.6538 90.8431 85.6538C90.7163 85.6538 90.6053 85.6733 90.5084 85.7123C90.4118 85.7508 90.3251 85.8101 90.2481 85.8902C90.1704 85.9689 90.1069 86.0658 90.0571 86.1825C90.0159 86.276 89.9858 86.3973 89.9658 86.5468C89.9489 86.6632 89.9346 86.8617 89.9226 87.143C89.9113 87.4236 89.906 87.6998 89.906 87.9717C89.906 88.0769 89.908 88.2083 89.9146 88.3667C89.7502 88.3625 89.5988 88.36 89.462 88.36C89.3275 88.36 89.1664 88.3625 88.9795 88.3667ZM94.5728 87.6074C94.5452 87.7388 94.505 87.9753 94.4528 88.3166C94.2184 88.3681 94.0202 88.4021 93.8601 88.4207C93.6987 88.4374 93.5376 88.4469 93.3742 88.4469C93.0896 88.4469 92.8352 88.4182 92.6104 88.36C92.3857 88.3018 92.189 88.1957 92.0187 88.0405C91.8497 87.8849 91.7251 87.6954 91.6441 87.4706C91.564 87.2446 91.5239 87.008 91.5239 86.7603C91.5239 86.4864 91.5707 86.2201 91.664 85.9632C91.7573 85.7053 91.8888 85.495 92.0565 85.3307C92.2245 85.1662 92.4168 85.0509 92.6314 84.9827C92.8462 84.9153 93.0717 84.8806 93.3064 84.8806C93.5277 84.8806 93.7379 84.9095 93.9381 84.9666C94.138 85.0236 94.306 85.1158 94.4416 85.2452C94.5774 85.3754 94.6807 85.5308 94.7541 85.7123C94.8265 85.8938 94.8633 86.097 94.8633 86.3194C94.8633 86.4246 94.852 86.5318 94.831 86.6437L92.4424 86.6475C92.4378 86.7294 92.4357 86.7957 92.4357 86.8449C92.4357 86.9944 92.4613 87.1314 92.5112 87.2558C92.5602 87.3802 92.6337 87.4865 92.7293 87.5734C92.8249 87.6613 92.9385 87.7251 93.0707 87.7663C93.2042 87.8075 93.3341 87.828 93.4622 87.828C93.6121 87.828 93.7744 87.8106 93.9491 87.7779C94.1238 87.7444 94.3316 87.6875 94.5728 87.6074V87.6074ZM92.468 86.2554L93.9936 86.2592C93.9936 86.1516 93.9903 86.0728 93.9836 86.0213C93.9769 85.9701 93.9624 85.9119 93.9401 85.8457C93.9169 85.7794 93.8859 85.7224 93.8468 85.672C93.8079 85.6218 93.7624 85.5798 93.71 85.5464C93.6578 85.5135 93.5977 85.4871 93.5287 85.469C93.4609 85.4518 93.3875 85.4424 93.3088 85.4424C93.2175 85.4424 93.1295 85.4573 93.0428 85.4862C92.9574 85.5147 92.8782 85.5581 92.8071 85.6127C92.7349 85.6689 92.6771 85.7315 92.6324 85.8011C92.5882 85.8696 92.5549 85.9358 92.5334 85.9996C92.5112 86.0636 92.4902 86.1484 92.468 86.2554V86.2554ZM98.3551 87.6074C98.3269 87.7388 98.2871 87.9753 98.2349 88.3166C98.0004 88.3681 97.8022 88.4021 97.6422 88.4207C97.481 88.4374 97.3197 88.4469 97.1562 88.4469C96.8717 88.4469 96.617 88.4182 96.3924 88.36C96.168 88.3018 95.971 88.1957 95.801 88.0405C95.6317 87.8849 95.5072 87.6954 95.4261 87.4706C95.346 87.2446 95.3059 87.008 95.3059 86.7603C95.3059 86.4864 95.3527 86.2201 95.4461 85.9632C95.5396 85.7053 95.6708 85.495 95.8385 85.3307C96.0065 85.1662 96.1989 85.0509 96.4137 84.9827C96.6279 84.9153 96.8538 84.8806 97.0885 84.8806C97.3097 84.8806 97.5199 84.9095 97.7202 84.9666C97.9201 85.0236 98.0881 85.1158 98.2236 85.2452C98.3595 85.3754 98.4627 85.5308 98.5361 85.7123C98.6085 85.8938 98.645 86.097 98.645 86.3194C98.645 86.4246 98.6341 86.5318 98.6128 86.6437L96.2244 86.6475C96.2201 86.7294 96.2178 86.7957 96.2178 86.8449C96.2178 86.9944 96.2434 87.1314 96.2935 87.2558C96.3423 87.3802 96.4158 87.4865 96.5114 87.5734C96.607 87.6613 96.7203 87.7251 96.8528 87.7663C96.9862 87.8075 97.1161 87.828 97.244 87.828C97.3944 87.828 97.5565 87.8106 97.7311 87.7779C97.9058 87.7444 98.1137 87.6875 98.3551 87.6074V87.6074ZM96.25 86.2554L97.7757 86.2592C97.7757 86.1516 97.7723 86.0728 97.7656 86.0213C97.759 85.9701 97.7444 85.9119 97.7224 85.8457C97.6989 85.7794 97.6679 85.7224 97.6288 85.672C97.5899 85.6218 97.5445 85.5798 97.4921 85.5464C97.4398 85.5135 97.3797 85.4871 97.3107 85.469C97.243 85.4518 97.1696 85.4424 97.0908 85.4424C96.9995 85.4424 96.9115 85.4573 96.8249 85.4862C96.7392 85.5147 96.6605 85.5581 96.5894 85.6127C96.517 85.6689 96.4592 85.7315 96.4147 85.8011C96.3702 85.8696 96.3367 85.9358 96.3155 85.9996C96.2935 86.0636 96.2722 86.1484 96.25 86.2554V86.2554ZM99.1557 88.3667C99.2059 87.861 99.247 87.2912 99.2805 86.6612C99.3138 86.0294 99.3327 85.4641 99.337 84.9641C99.5373 84.9686 99.6973 84.9708 99.8165 84.9708C99.9577 84.9708 100.108 84.9686 100.267 84.9641L100.23 85.5327C100.298 85.4348 100.357 85.3569 100.408 85.2987C100.459 85.2416 100.524 85.1845 100.604 85.1288C100.683 85.0727 100.767 85.0281 100.857 84.9952C100.947 84.961 101.048 84.9343 101.161 84.914C101.273 84.8943 101.39 84.8842 101.511 84.8842C101.704 84.8842 101.89 84.9095 102.067 84.9596C102.244 85.01 102.387 85.0899 102.495 85.1982C102.604 85.3078 102.676 85.4278 102.711 85.5569C102.745 85.6856 102.763 85.823 102.763 85.9678C102.763 86.0282 102.76 86.1243 102.753 86.2554L102.685 87.7184C102.676 87.9205 102.671 88.1376 102.668 88.3667C102.497 88.3625 102.351 88.36 102.229 88.36C102.064 88.36 101.897 88.3625 101.73 88.3667C101.748 88.1729 101.769 87.8348 101.794 87.3518C101.821 86.8686 101.833 86.549 101.833 86.3928C101.833 86.217 101.807 86.0753 101.752 85.9678C101.698 85.8604 101.614 85.7794 101.5 85.7234C101.385 85.6677 101.263 85.64 101.13 85.64C100.999 85.64 100.878 85.6653 100.765 85.7168C100.653 85.768 100.555 85.8434 100.471 85.9414C100.384 86.0424 100.318 86.1654 100.27 86.3125C100.22 86.4691 100.183 86.7261 100.159 87.086C100.138 87.4044 100.12 87.8317 100.106 88.3667C99.9398 88.3625 99.7884 88.36 99.6541 88.36C99.5173 88.36 99.3516 88.3625 99.1557 88.3667V88.3667ZM105.22 88.3667C105.256 87.9295 105.283 87.5528 105.301 87.2365C105.326 86.7831 105.355 86.1435 105.388 85.3161C105.409 84.7495 105.42 84.3478 105.42 84.1114V83.8006C105.69 83.8053 105.867 83.8073 105.951 83.8073C106.008 83.8073 106.176 83.8053 106.454 83.8006L106.354 85.6071L106.266 87.7721L106.256 88.3667L105.751 88.36C105.69 88.36 105.513 88.3625 105.22 88.3667ZM106.402 85.9509L107.141 85.018L107.815 84.1385C107.863 84.0736 107.943 83.9615 108.056 83.8006L108.642 83.8073C108.667 83.8073 108.854 83.8053 109.203 83.8006L107.704 85.6095L107.45 85.9336L107.655 86.235C107.686 86.2771 107.9 86.5672 108.3 87.1052L109.248 88.3667L108.669 88.36C108.567 88.36 108.355 88.3625 108.034 88.3667L107.825 88.0324C107.786 87.9675 107.717 87.8621 107.617 87.7148L106.731 86.4166L106.402 85.9509V85.9509ZM111.461 84.8842C111.71 84.8842 111.949 84.9233 112.179 84.9995C112.409 85.0762 112.602 85.1902 112.762 85.3412C112.921 85.4918 113.041 85.6756 113.123 85.8926C113.202 86.1106 113.243 86.3391 113.243 86.5799C113.243 86.8346 113.2 87.0799 113.116 87.3165C113.031 87.5528 112.908 87.7573 112.748 87.9295C112.587 88.1031 112.387 88.2322 112.146 88.3177C111.906 88.4035 111.65 88.4469 111.379 88.4469C111.128 88.4469 110.887 88.4081 110.661 88.3316C110.434 88.2548 110.241 88.1384 110.079 87.9854C109.919 87.8316 109.797 87.6441 109.714 87.4236C109.63 87.2023 109.588 86.9713 109.588 86.7305C109.588 86.4853 109.626 86.2512 109.702 86.0283C109.778 85.8058 109.897 85.6071 110.058 85.4325C110.22 85.2588 110.427 85.1239 110.679 85.0281C110.931 84.9321 111.191 84.8842 111.461 84.8842V84.8842ZM111.461 85.5742C111.272 85.5742 111.103 85.6205 110.954 85.7154C110.805 85.8101 110.695 85.9519 110.622 86.139C110.549 86.3262 110.513 86.5309 110.513 86.7511C110.513 86.9454 110.543 87.1175 110.603 87.2694C110.662 87.4216 110.76 87.5438 110.895 87.6371C111.031 87.7307 111.192 87.7779 111.379 87.7779C111.57 87.7779 111.738 87.7296 111.883 87.6329C112.027 87.5358 112.135 87.3928 112.208 87.2043C112.281 87.0159 112.317 86.808 112.317 86.581C112.317 86.3949 112.29 86.227 112.233 86.0753C112.176 85.9242 112.082 85.802 111.947 85.7109C111.814 85.6196 111.652 85.5742 111.461 85.5742V85.5742ZM114.732 88.3667C114.589 87.8966 114.204 86.7614 113.576 84.9641C113.767 84.9686 113.931 84.9708 114.07 84.9708C114.218 84.9708 114.369 84.9686 114.524 84.9641L115.287 87.5172L115.391 87.226L116.124 85.3161C116.159 85.2268 116.202 85.1091 116.254 84.9641C116.432 84.9686 116.59 84.9708 116.729 84.9708C116.87 84.9708 117.031 84.9686 117.212 84.9641L116.68 86.1448L115.912 87.935L115.739 88.3667C115.544 88.3625 115.379 88.36 115.247 88.36C115.108 88.36 114.937 88.3625 114.732 88.3667V88.3667ZM117.732 85.7109C117.762 85.55 117.781 85.4381 117.789 85.373C117.797 85.3078 117.81 85.2096 117.83 85.0782C118.126 85.0064 118.386 84.9574 118.612 84.9276C118.837 84.8992 119.057 84.8842 119.267 84.8842C119.506 84.8842 119.725 84.9126 119.925 84.9697C120.124 85.0268 120.281 85.1172 120.394 85.2416C120.507 85.3674 120.563 85.5464 120.563 85.7803C120.563 85.9085 120.546 86.2315 120.511 86.7523C120.476 87.273 120.455 87.812 120.449 88.3667C120.283 88.3625 120.132 88.36 119.993 88.36C119.861 88.36 119.705 88.3625 119.527 88.3667C119.556 88.0973 119.578 87.7846 119.596 87.4306L119.638 86.5969C119.556 86.6531 119.493 86.6916 119.449 86.7147C119.406 86.7361 119.357 86.7569 119.302 86.7764C119.248 86.7943 119.152 86.8241 119.015 86.863C118.879 86.902 118.768 86.9362 118.686 86.9646C118.604 86.9944 118.53 87.0264 118.463 87.0642C118.397 87.1007 118.341 87.1417 118.295 87.1873C118.249 87.233 118.216 87.2811 118.196 87.3312C118.175 87.3814 118.165 87.4353 118.165 87.4934C118.165 87.5871 118.192 87.6683 118.245 87.7356C118.298 87.8039 118.365 87.8509 118.445 87.8782C118.525 87.9044 118.62 87.9182 118.729 87.9182C118.799 87.9182 118.872 87.9124 118.949 87.901C119.025 87.8907 119.13 87.8621 119.26 87.8175C119.215 87.9444 119.161 88.134 119.1 88.3862C118.945 88.414 118.823 88.4298 118.732 88.4365C118.641 88.4435 118.556 88.4469 118.477 88.4469C118.204 88.4469 117.979 88.409 117.803 88.3327C117.628 88.2571 117.498 88.1376 117.414 87.9717C117.331 87.8075 117.289 87.6407 117.289 87.4742C117.289 87.3782 117.305 87.2831 117.337 87.1895C117.37 87.0958 117.417 87.0092 117.481 86.9317C117.544 86.8538 117.626 86.7787 117.726 86.7055C117.826 86.6334 117.97 86.5627 118.159 86.4954C118.348 86.4271 118.597 86.3582 118.909 86.2897C118.991 86.2715 119.077 86.2498 119.166 86.2245C119.255 86.1986 119.326 86.1733 119.379 86.1494C119.432 86.1243 119.479 86.0925 119.518 86.0535C119.557 86.0146 119.586 85.9737 119.604 85.9316C119.623 85.8888 119.631 85.8457 119.631 85.8011C119.631 85.7143 119.604 85.64 119.549 85.5809C119.494 85.5203 119.422 85.4782 119.334 85.4554C119.246 85.4312 119.149 85.4197 119.042 85.4197C118.646 85.4197 118.21 85.5169 117.732 85.7109V85.7109Z" fill="#1A1B1F"/>
<path fill-rule="evenodd" clip-rule="evenodd" d="M121.481 84.3841C121.49 84.1545 121.494 83.9775 121.494 83.8553V83.748C121.692 83.7525 121.852 83.755 121.977 83.755C122.146 83.755 122.304 83.7525 122.449 83.748C122.443 83.8038 122.438 83.8676 122.436 83.9387L122.419 84.3841C122.255 84.3794 122.102 84.3772 121.963 84.3772C121.825 84.3772 121.663 84.3794 121.481 84.3841ZM121.304 88.3677C121.336 88.0333 121.36 87.7534 121.373 87.5285C121.394 87.1713 121.414 86.76 121.43 86.2931C121.446 85.8271 121.458 85.3845 121.464 84.9651C121.678 84.9695 121.837 84.9718 121.943 84.9718C122.04 84.9718 122.199 84.9695 122.418 84.9651C122.388 85.3536 122.364 85.7233 122.345 86.0762C122.327 86.4281 122.314 86.832 122.305 87.2877C122.296 87.7422 122.291 88.1028 122.291 88.3677C122.094 88.3634 121.936 88.361 121.816 88.361C121.703 88.361 121.532 88.3634 121.304 88.3677V88.3677ZM123.146 88.3677C123.155 88.2068 123.167 87.9076 123.181 87.4678L123.676 87.4752C123.719 87.4752 123.862 87.4728 124.103 87.4678C124.092 87.6314 124.083 87.7948 124.078 87.9604L124.058 88.3677L123.63 88.361C123.614 88.361 123.451 88.3634 123.146 88.3677V88.3677Z" fill="#1A1B1F"/>
<path fill-rule="evenodd" clip-rule="evenodd" d="M56.3234 75.8516V70.6403C56.3234 69.9621 56.2824 69.3544 56.2048 68.8139C56.1228 68.2733 55.9795 67.6578 55.7708 66.9638H57.6325H59.4901C59.2814 67.3662 59.1341 67.8354 59.0524 68.372C58.9664 68.9125 58.9254 69.6697 58.9254 70.6403V75.8516C58.9254 76.83 58.9664 77.5872 59.0524 78.1238C59.1341 78.6602 59.2814 79.1256 59.4901 79.528H57.6325H55.7708C55.9795 79.1414 56.1228 78.6801 56.2048 78.1395C56.2824 77.603 56.3234 76.8379 56.3234 75.8516V75.8516ZM61.0546 75.8516V70.6403C61.0546 69.9621 61.0136 69.3544 60.936 68.8139C60.854 68.2733 60.711 67.6578 60.5023 66.9638H62.0733H63.6566V69.1926L65.682 66.9995C66.2792 66.79 66.856 66.6877 67.4085 66.6877C67.8628 66.6877 68.2514 66.7703 68.5705 66.94L68.0427 69.6462L67.9241 69.5675C67.437 69.2204 66.856 69.0465 66.1854 69.0465C65.6901 69.0465 65.0436 69.224 64.2458 69.5754L63.6566 69.8315V75.8516C63.6566 76.83 63.6976 77.5872 63.7833 78.1238C63.8653 78.6602 64.0127 79.1256 64.2213 79.528H62.3637H60.5023C60.711 79.1414 60.854 78.6801 60.936 78.1395C61.0136 77.603 61.0546 76.8379 61.0546 75.8516V75.8516ZM72.1682 70.6403V75.3189C72.1682 76.0448 72.34 76.5813 72.6879 76.9322C73.0358 77.2837 73.5675 77.4572 74.2795 77.4572C74.844 77.4572 75.5233 77.3072 76.3171 77.0074L76.7467 76.8458V70.6403C76.7467 69.9539 76.7057 69.3425 76.6278 68.8019C76.5459 68.2618 76.4028 67.6501 76.1941 66.9638H78.0558H79.9132C79.7045 67.3662 79.5574 67.8354 79.4757 68.372C79.3897 68.9125 79.3487 69.6697 79.3487 70.6403V75.8516C79.3487 76.83 79.3897 77.5872 79.4757 78.1238C79.5574 78.6602 79.7045 79.1256 79.9132 79.528H78.4035H76.8775V77.39L74.8277 79.54C74.0871 79.7253 73.5267 79.816 73.1503 79.816C71.976 79.816 71.084 79.5161 70.4785 78.9128C69.869 78.3131 69.5661 77.4376 69.5661 76.2895V70.6403C69.5661 69.9621 69.5252 69.3504 69.4475 68.8139C69.3656 68.2733 69.2226 67.6578 69.0136 66.9638H70.8753H72.7329C72.5242 67.3662 72.3771 67.8354 72.2868 68.372C72.2092 68.9125 72.1682 69.6697 72.1682 70.6403ZM84.9104 79.8043C83.8878 79.8043 83.1428 79.5125 82.6725 78.9248C82.206 78.3408 81.9729 77.4019 81.9729 76.1156V68.6954H80.1275C82.7041 67.9463 83.6198 66.6964 83.6692 63.2546L84.6546 63.2144L84.5749 66.9638H87.6066V68.6954H84.5749V75.0625C84.5749 75.9105 84.7264 76.5456 85.0249 76.964C85.3237 77.3858 85.7736 77.5951 86.3712 77.5951C86.7392 77.5951 87.079 77.5518 87.3856 77.469C87.6926 77.3823 88.0608 77.2324 88.4945 77.0191L87.4636 79.4337C87.0092 79.5793 86.6084 79.6779 86.2686 79.7297C85.9291 79.7806 85.4792 79.8043 84.9104 79.8043V79.8043ZM90.5178 75.8516V65.9145C90.5178 65.0976 90.4786 64.4191 90.399 63.8786C90.3193 63.338 90.174 62.7939 89.9655 62.2375L91.827 61.8789L93.6844 61.5078C93.4759 62.08 93.3308 62.7154 93.2468 63.4172C93.1631 64.1159 93.1198 65.0744 93.1198 66.2815V69.1493L95.0961 66.9518C95.7669 66.7744 96.3276 66.6877 96.7735 66.6877C97.9559 66.6877 98.8549 67.0438 99.4697 67.7564C100.086 68.4716 100.394 69.5084 100.394 70.8732V75.8516C100.394 76.9009 100.429 77.6935 100.497 78.2265C100.564 78.7627 100.685 79.1968 100.861 79.528H99.0523H97.2398C97.4487 79.1414 97.5935 78.6801 97.6734 78.1395C97.7528 77.6033 97.7923 76.8379 97.7923 75.8516V71.2201C97.7923 70.4863 97.6164 69.9422 97.2644 69.5831C96.9127 69.224 96.3724 69.0465 95.6483 69.0465C95.1533 69.0465 94.5102 69.2316 93.705 69.579L93.1198 69.8315V75.8516C93.1198 76.8295 93.1629 77.5872 93.2468 78.1238C93.3306 78.6599 93.4759 79.1256 93.6844 79.528H91.827H89.9655C90.174 79.1414 90.3191 78.6801 90.399 78.1395C90.4784 77.6033 90.5178 76.8379 90.5178 75.8516V75.8516ZM106.058 70.6403V75.3189C106.058 76.0448 106.23 76.5813 106.577 76.9322C106.925 77.2837 107.457 77.4572 108.169 77.4572C108.734 77.4572 109.413 77.3072 110.207 77.0074L110.636 76.8458V70.6403C110.636 69.9539 110.595 69.3425 110.518 68.8019C110.436 68.2618 110.292 67.6501 110.084 66.9638H111.945H113.803C113.594 67.3662 113.447 67.8354 113.365 68.372C113.279 68.9125 113.238 69.6697 113.238 70.6403V75.8516C113.238 76.83 113.279 77.5872 113.365 78.1238C113.447 78.6602 113.594 79.1256 113.803 79.528H112.293H110.767V77.39L108.717 79.54C107.977 79.7253 107.416 79.816 107.04 79.816C105.866 79.816 104.974 79.5161 104.368 78.9128C103.759 78.3131 103.456 77.4376 103.456 76.2895V70.6403C103.456 69.9621 103.415 69.3504 103.337 68.8139C103.255 68.2733 103.112 67.6578 102.903 66.9638H104.765H106.623C106.414 67.3662 106.267 67.8354 106.177 68.372C106.099 68.9125 106.058 69.6697 106.058 70.6403V70.6403ZM116.055 75.8516V65.9145C116.055 65.0976 116.014 64.4194 115.936 63.8786C115.854 63.3385 115.711 62.7939 115.502 62.2375L117.364 61.8789L119.221 61.5078C119.013 62.08 118.866 62.7151 118.784 63.4132C118.698 64.1156 118.657 65.0701 118.657 66.2815V75.8516C118.657 76.83 118.698 77.5872 118.784 78.1238C118.866 78.6602 119.013 79.1256 119.221 79.528H117.364H115.502C115.711 79.1414 115.854 78.6801 115.936 78.1395C116.014 77.603 116.055 76.8379 116.055 75.8516V75.8516ZM120.937 75.8516V70.6403C120.937 69.9621 120.897 69.3544 120.819 68.8139C120.737 68.2733 120.594 67.6578 120.385 66.9638H122.247H124.104C123.896 67.3662 123.748 67.8354 123.666 68.372C123.58 68.9125 123.54 69.6697 123.54 70.6403V75.8516C123.54 76.83 123.58 77.5872 123.666 78.1238C123.748 78.6602 123.896 79.1256 124.104 79.528H122.247H120.385C120.594 79.1414 120.737 78.6801 120.819 78.1395C120.897 77.603 120.937 76.8379 120.937 75.8516V75.8516Z" fill="#1A1B1F"/>
<path fill-rule="evenodd" clip-rule="evenodd" d="M53.618 65.5998C52.9621 65.02 52.3012 64.602 51.6451 64.3418C50.9844 64.0775 50.2611 63.9472 49.4698 63.9472C48.5485 63.9472 47.782 64.1761 47.174 64.6338C46.5664 65.0911 46.2674 65.663 46.2674 66.3496C46.2674 66.9374 46.4988 67.4657 46.9716 67.9433C47.4346 68.4126 48.2691 68.9611 49.475 69.5847C51.303 70.5392 52.5857 71.4348 53.3286 72.2669C54.0761 73.0993 54.4474 74.0699 54.4474 75.1786C54.4474 76.6815 53.7964 77.9281 52.4989 78.9221C51.1969 79.9163 49.5617 80.4131 47.5939 80.4131C46.61 80.4131 45.7706 80.3537 45.0761 80.2395C44.377 80.1251 43.5615 79.9079 42.6309 79.5927V76.208C43.3109 76.902 44.0102 77.4071 44.7386 77.7308C45.4621 78.0543 46.258 78.2156 47.1261 78.2156C48.2207 78.2156 49.1275 77.9595 49.8462 77.4464C50.5696 76.9338 50.9314 76.2947 50.9314 75.5255C50.9314 74.8549 50.6856 74.259 50.1934 73.7465C49.7159 73.2372 48.8527 72.6574 47.6133 72.0103C45.8238 71.0877 44.5648 70.2277 43.8415 69.4346C43.1131 68.6417 42.7464 67.7305 42.7464 66.7087C42.7464 65.2884 43.4073 64.1089 44.7287 63.1661C46.0552 62.2233 47.7145 61.75 49.7063 61.75C50.507 61.75 51.2208 61.8091 51.8476 61.9233C52.475 62.0378 53.0634 62.2193 53.618 62.4677V65.5998V65.5998Z" fill="#1A1B1F"/>
<path fill-rule="evenodd" clip-rule="evenodd" d="M127.83 19.918C128.577 17.9239 128.092 18.2261 128.123 19.6163C128.167 21.585 128.495 23.4045 128.843 25.1154C130.582 33.6597 134.567 39.429 133.995 46.464C133.785 49.06 132.606 51.2596 131.141 52.9214C130.095 54.0982 129.256 55.7026 130.439 57.5646C130.479 57.6272 127.344 56.1355 125.045 57.9463C124.829 58.1161 124.612 58.2021 124.616 58.1977C125.249 57.4421 127.305 54.9195 126.152 52.8853C126.128 52.8422 128.073 54.5334 129.794 53.4678C130.258 53.1803 130.828 52.7106 131.107 52.2632C132.254 50.4253 132.375 46.2986 132.376 44.979C132.38 41.0465 130.348 37.5977 129.011 33.6755C128.208 31.3228 127.623 24.8552 127.474 25.7344C127.378 26.2979 121.002 32.8043 120.434 37.9796C119.818 43.5862 128.953 44.3096 125.909 51.7021C123.516 57.5109 118.571 56.8984 117.906 56.8306C113.724 56.404 110.737 54.2161 109.063 50.9506C108.301 49.4664 107.811 47.7594 107.604 45.894C106.541 36.3399 116.42 32.0675 122.668 26.342C124.923 24.2751 126.745 22.8161 127.83 19.918V19.918Z" fill="#1A1B1F"/>
<path fill-rule="evenodd" clip-rule="evenodd" d="M134.524 17.5547C136.094 17.5547 137.366 18.8242 137.366 20.3906C137.366 21.9563 136.094 23.2261 134.524 23.2261C132.954 23.2261 131.682 21.9563 131.682 20.3906C131.682 18.8242 132.954 17.5547 134.524 17.5547Z" stroke="#1A1B1F" stroke-miterlimit="2.61313"/>
<path d="M133.104 21.8064V18.9707H134.448C134.785 18.9707 135.031 18.9964 135.184 19.0471C135.338 19.0981 135.46 19.1884 135.552 19.3184C135.644 19.4491 135.69 19.5977 135.69 19.7653C135.69 19.9785 135.621 20.1541 135.482 20.2927C135.343 20.4314 135.135 20.5184 134.859 20.5549C134.996 20.6269 135.11 20.7059 135.199 20.7926C135.288 20.879 135.409 21.0327 135.561 21.2533L135.946 21.8064H135.183L134.726 21.1872C134.562 20.9675 134.449 20.8288 134.388 20.7714C134.328 20.7146 134.264 20.6751 134.196 20.6539C134.128 20.6327 134.021 20.6222 133.873 20.6222H133.744V21.8064H133.104ZM133.744 20.1707H134.216C134.522 20.1707 134.712 20.1588 134.789 20.1357C134.865 20.1126 134.925 20.0722 134.968 20.0157C135.011 19.9588 135.033 19.8875 135.033 19.8023C135.033 19.7066 135.004 19.6301 134.947 19.5707C134.891 19.512 134.81 19.475 134.707 19.4597C134.655 19.4532 134.5 19.4498 134.242 19.4498H133.744V20.1707Z" fill="#1A1B1F"/>
</g>
</svg>
