<svg width="96" height="72" viewBox="0 0 96 72" fill="none" xmlns="http://www.w3.org/2000/svg">
<path fill-rule="evenodd" clip-rule="evenodd" d="M4.37811 70.5313C4.33029 70.7915 4.28913 71.0572 4.25463 71.3271C4.00656 71.3716 3.77976 71.4021 3.57286 71.4207C3.36726 71.4374 3.19061 71.4469 3.0425 71.4469C2.7167 71.4469 2.40553 71.4001 2.10862 71.3063C1.81178 71.2125 1.54478 71.0653 1.307 70.8632C1.06888 70.6613 0.896556 70.417 0.790908 70.1291C0.684026 69.8413 0.630859 69.5274 0.630859 69.186C0.630859 68.8159 0.695277 68.4735 0.823151 68.1592C0.951025 67.8442 1.13563 67.5794 1.37574 67.3623C1.61482 67.1466 1.89972 66.9857 2.22757 66.8796C2.55535 66.7733 2.89699 66.7207 3.25372 66.7207C3.6051 66.7207 3.98996 66.7618 4.40699 66.844C4.41364 67.0425 4.42057 67.1832 4.42695 67.2654L4.44918 67.6242C4.20345 67.5577 4.00018 67.512 3.8365 67.4867C3.67411 67.463 3.51839 67.4502 3.37083 67.4502C3.13813 67.4502 2.91593 67.4867 2.70141 67.5586C2.48764 67.632 2.29864 67.7475 2.13421 67.9046C1.9708 68.0635 1.84498 68.2542 1.7573 68.4793C1.66929 68.7031 1.62484 68.9359 1.62484 69.1791C1.62484 69.4691 1.6793 69.7285 1.78824 69.9577C1.89616 70.1887 2.07082 70.3746 2.31092 70.5172C2.55131 70.6602 2.84815 70.7307 3.20158 70.7307C3.52964 70.7307 3.92218 70.6644 4.37811 70.5313ZM5.05549 71.3667C5.08773 70.9901 5.12786 70.3129 5.17444 69.3342C5.22123 68.3569 5.24908 67.512 5.26012 66.8006C5.48589 66.8053 5.64697 66.8073 5.74288 66.8073C5.87048 66.8073 6.02723 66.8053 6.21211 66.8006L6.13412 68.0212L6.02085 70.7444L6.00727 71.3667C5.82959 71.3625 5.67818 71.36 5.55367 71.36C5.51272 71.36 5.34677 71.3625 5.05549 71.3667ZM9.82154 70.6074C9.79397 70.7388 9.75377 70.9753 9.70163 71.3166C9.46687 71.3681 9.26895 71.4021 9.10911 71.4207C8.94776 71.4374 8.78641 71.4469 8.623 71.4469C8.33844 71.4469 8.08372 71.4182 7.85918 71.36C7.63465 71.3018 7.43749 71.1957 7.26749 71.0405C7.09846 70.8849 6.97415 70.6954 6.89285 70.4706C6.81279 70.2446 6.77267 70.008 6.77267 69.7603C6.77267 69.4864 6.81945 69.2201 6.91282 68.9632C7.00639 68.7053 7.13728 68.495 7.30556 68.3307C7.47309 68.1662 7.66559 68.0509 7.88018 67.9827C8.09497 67.9153 8.32053 67.8806 8.55529 67.8806C8.77646 67.8806 8.98666 67.9095 9.18663 67.9666C9.38709 68.0236 9.55482 68.1158 9.69038 68.2452C9.82614 68.3754 9.92973 68.5308 10.0029 68.7123C10.0752 68.8938 10.1118 69.097 10.1118 69.3194C10.1118 69.4246 10.1008 69.5318 10.0796 69.6437L7.69118 69.6475C7.68685 69.7294 7.68452 69.7957 7.68452 69.8449C7.68452 69.9944 7.71011 70.1314 7.76026 70.2558C7.8091 70.3802 7.88244 70.4865 7.97807 70.5734C8.07377 70.6613 8.18703 70.7251 8.3195 70.7663C8.45273 70.8075 8.58314 70.828 8.71074 70.828C8.86112 70.828 9.02322 70.8106 9.19788 70.7779C9.37254 70.7444 9.58041 70.6875 9.82154 70.6074ZM7.71676 69.2554L9.24234 69.2592C9.24234 69.1516 9.23904 69.0728 9.23239 69.0213C9.22574 68.9701 9.21119 68.9119 9.1889 68.8457C9.16564 68.7794 9.13443 68.7224 9.0956 68.672C9.0567 68.6218 9.01094 68.5798 8.95881 68.5464C8.9066 68.5135 8.8465 68.4871 8.77769 68.469C8.70971 68.4518 8.63631 68.4424 8.55728 68.4424C8.46624 68.4424 8.37829 68.4573 8.29158 68.4862C8.20597 68.5147 8.12721 68.5581 8.05607 68.6127C7.98369 68.6689 7.92566 68.7315 7.88141 68.8011C7.83668 68.8696 7.80348 68.9358 7.78249 68.9996C7.76026 69.0636 7.73899 69.1484 7.71676 69.2554ZM10.8974 68.7109C10.9273 68.55 10.9462 68.4381 10.9542 68.373C10.9618 68.3078 10.9751 68.2096 10.9951 68.0782C11.2909 68.0064 11.551 67.9574 11.7768 67.9276C12.0025 67.8992 12.2215 67.8842 12.4316 67.8842C12.6707 67.8842 12.8899 67.9126 13.0902 67.9697C13.2891 68.0268 13.4459 68.1172 13.5594 68.2416C13.6714 68.3674 13.7284 68.5464 13.7284 68.7803C13.7284 68.9085 13.7105 69.2315 13.676 69.7523C13.6404 70.273 13.6205 70.812 13.6139 71.3667C13.4481 71.3625 13.297 71.36 13.1579 71.36C13.0255 71.36 12.8699 71.3625 12.692 71.3667C12.7209 71.0973 12.7431 70.7846 12.7608 70.4306L12.8032 69.5969C12.7209 69.6531 12.6575 69.6916 12.6143 69.7147C12.5708 69.7361 12.5219 69.7569 12.4675 69.7764C12.4127 69.7943 12.3174 69.8241 12.1806 69.863C12.0435 69.902 11.9338 69.9362 11.8512 69.9646C11.7691 69.9944 11.6945 70.0264 11.6277 70.0642C11.5623 70.1007 11.5055 70.1417 11.46 70.1873C11.4141 70.233 11.3809 70.2811 11.361 70.3312C11.3398 70.3814 11.3298 70.4353 11.3298 70.4934C11.3298 70.5871 11.3567 70.6683 11.4098 70.7356C11.4633 70.8039 11.53 70.8509 11.6101 70.8782C11.6901 70.9044 11.7845 70.9182 11.8937 70.9182C11.9637 70.9182 12.0371 70.9124 12.1135 70.901C12.1905 70.8907 12.2949 70.8621 12.425 70.8175C12.3795 70.9444 12.3261 71.134 12.2649 71.3862C12.1105 71.414 11.988 71.4298 11.897 71.4365C11.8057 71.4435 11.7213 71.4469 11.6422 71.4469C11.3687 71.4469 11.1441 71.409 10.9684 71.3327C10.7927 71.2571 10.6626 71.1376 10.5793 70.9717C10.4959 70.8075 10.4534 70.6407 10.4534 70.4742C10.4534 70.3782 10.4703 70.2831 10.5026 70.1895C10.5347 70.0958 10.5825 70.0092 10.646 69.9317C10.7094 69.8538 10.7905 69.7787 10.8904 69.7055C10.9907 69.6334 11.1352 69.5627 11.3241 69.4954C11.5134 69.4271 11.7624 69.3582 12.0737 69.2897C12.156 69.2715 12.2417 69.2498 12.3307 69.2245C12.4196 69.1986 12.4907 69.1733 12.5442 69.1493C12.5976 69.1243 12.6442 69.0925 12.683 69.0535C12.7219 69.0146 12.7508 68.9737 12.7687 68.9316C12.7876 68.8888 12.7963 68.8457 12.7963 68.8011C12.7963 68.7143 12.7687 68.64 12.7142 68.5809C12.6585 68.5203 12.5863 68.4782 12.4984 68.4554C12.4107 68.4312 12.3138 68.4197 12.2071 68.4197C11.8113 68.4197 11.3756 68.5169 10.8974 68.7109ZM14.447 71.3667C14.4971 70.861 14.538 70.2912 14.5715 69.6612C14.6048 69.0294 14.6237 68.4641 14.628 67.9641C14.8283 67.9686 14.9883 67.9708 15.1075 67.9708C15.2487 67.9708 15.3988 67.9686 15.5578 67.9641L15.521 68.5327C15.5887 68.4348 15.6478 68.3569 15.699 68.2987C15.7501 68.2416 15.8146 68.1845 15.8948 68.1288C15.9736 68.0727 16.058 68.0281 16.148 67.9952C16.2382 67.961 16.3393 67.9343 16.4518 67.914C16.564 67.8943 16.6809 67.8842 16.8021 67.8842C16.9955 67.8842 17.1811 67.9095 17.358 67.9596C17.5347 68.01 17.6782 68.0899 17.7861 68.1982C17.895 68.3078 17.9671 68.4278 18.0017 68.5569C18.0362 68.6856 18.0541 68.823 18.0541 68.9678C18.0541 69.0282 18.0508 69.1243 18.0441 69.2554L17.9763 70.7184C17.9671 70.9205 17.9618 71.1376 17.9595 71.3667C17.7884 71.3625 17.6416 71.36 17.5204 71.36C17.3547 71.36 17.188 71.3625 17.021 71.3667C17.0387 71.1729 17.0599 70.8348 17.0857 70.3518C17.1123 69.8686 17.1246 69.549 17.1246 69.3928C17.1246 69.217 17.0978 69.0753 17.0433 68.9678C16.9888 68.8604 16.9054 68.7794 16.7909 68.7234C16.6763 68.6677 16.5541 68.64 16.4206 68.64C16.2904 68.64 16.1692 68.6653 16.056 68.7168C15.9437 68.768 15.8458 68.8434 15.7623 68.9414C15.6754 69.0424 15.6089 69.1654 15.5611 69.3125C15.511 69.4691 15.4744 69.7261 15.4499 70.086C15.4287 70.4044 15.411 70.8317 15.3974 71.3667C15.231 71.3625 15.0796 71.36 14.9451 71.36C14.8083 71.36 14.6426 71.3625 14.447 71.3667ZM20.5105 71.3667C20.5473 70.9295 20.5742 70.5528 20.5921 70.2365C20.6174 69.7831 20.6463 69.1435 20.6785 68.3161C20.6998 67.7495 20.7107 67.3478 20.7107 67.1114V66.8006C20.981 66.8053 21.1578 66.8073 21.2423 66.8073C21.2989 66.8073 21.4672 66.8053 21.7451 66.8006L21.6449 68.6071L21.5572 70.7721L21.5469 71.3667L21.0422 71.36C20.981 71.36 20.8043 71.3625 20.5105 71.3667ZM21.6927 68.9509L22.4322 68.018L23.1061 67.1385C23.1539 67.0736 23.2339 66.9615 23.3472 66.8006L23.9333 66.8073C23.9575 66.8073 24.1445 66.8053 24.4938 66.8006L22.9948 68.6095L22.7414 68.9336L22.9459 69.235C22.9769 69.2771 23.1915 69.5672 23.5906 70.1052L24.5394 71.3667L23.9599 71.36C23.8576 71.36 23.6464 71.3625 23.325 71.3667L23.116 71.0324C23.0772 70.9675 23.0081 70.8621 22.9079 70.7148L22.0218 69.4166L21.6927 68.9509ZM26.7523 67.8842C27.0014 67.8842 27.2405 67.9233 27.4696 67.9995C27.6997 68.0762 27.8933 68.1902 28.0534 68.3412C28.2125 68.4918 28.3326 68.6756 28.4137 68.8926C28.4937 69.1106 28.5336 69.3391 28.5336 69.58C28.5336 69.8346 28.4915 70.0799 28.4071 70.3165C28.3224 70.5528 28.1989 70.7573 28.0388 70.9295C27.8777 71.1031 27.6775 71.2322 27.4374 71.3177C27.1973 71.4035 26.9413 71.4469 26.6702 71.4469C26.4186 71.4469 26.1785 71.4081 25.9519 71.3316C25.7248 71.2548 25.5315 71.1384 25.3701 70.9854C25.2101 70.8316 25.0876 70.6441 25.0045 70.4236C24.9211 70.2023 24.8787 69.9713 24.8787 69.7305C24.8787 69.4853 24.9165 69.2512 24.9932 69.0283C25.0687 68.8058 25.1879 68.6071 25.3489 68.4325C25.5113 68.2588 25.7182 68.1239 25.9696 68.0281C26.222 67.9321 26.4822 67.8842 26.7523 67.8842ZM26.7523 68.5742C26.5633 68.5742 26.3943 68.6205 26.2452 68.7154C26.0964 68.8101 25.9862 68.9519 25.9128 69.139C25.8404 69.3262 25.8038 69.5309 25.8038 69.7511C25.8038 69.9454 25.834 70.1175 25.8938 70.2694C25.9529 70.4216 26.0506 70.5438 26.1864 70.6371C26.3222 70.7307 26.4833 70.7779 26.6702 70.7779C26.8615 70.7779 27.029 70.7296 27.1737 70.6329C27.3184 70.5358 27.4261 70.3928 27.4995 70.2043C27.5718 70.0159 27.6084 69.808 27.6084 69.581C27.6084 69.3949 27.5808 69.227 27.524 69.0753C27.4673 68.9242 27.3729 68.802 27.2382 68.7109C27.1049 68.6196 26.9426 68.5742 26.7523 68.5742ZM30.0229 71.3667C29.8795 70.8966 29.4949 69.7614 28.8666 67.9641C29.0578 67.9686 29.2223 67.9708 29.3611 67.9708C29.5092 67.9708 29.6603 67.9686 29.815 67.9641L30.5778 70.5172L30.6821 70.226L31.4151 68.3161C31.4496 68.2268 31.493 68.1091 31.5452 67.9641C31.723 67.9686 31.8809 67.9708 32.0201 67.9708C32.1612 67.9708 32.3223 67.9686 32.5026 67.9641L31.9709 69.1448L31.2025 70.935L31.0302 71.3667C30.8346 71.3625 30.6701 71.36 30.5376 71.36C30.3986 71.36 30.2275 71.3625 30.0229 71.3667ZM33.0232 68.7109C33.0534 68.55 33.0724 68.4381 33.0798 68.373C33.0877 68.3078 33.101 68.2096 33.1212 68.0782C33.4168 68.0064 33.6771 67.9574 33.9029 67.9276C34.1284 67.8992 34.3476 67.8842 34.5578 67.8842C34.7969 67.8842 35.0161 67.9126 35.216 67.9697C35.4152 68.0268 35.5719 68.1172 35.6853 68.2416C35.7975 68.3674 35.8545 68.5464 35.8545 68.7803C35.8545 68.9085 35.8366 69.2315 35.8021 69.7523C35.7666 70.273 35.7464 70.812 35.7397 71.3667C35.5743 71.3625 35.4229 71.36 35.2837 71.36C35.1515 71.36 34.9958 71.3625 34.8179 71.3667C34.8467 71.0973 34.869 70.7846 34.8869 70.4306L34.9291 69.5969C34.8467 69.6531 34.7836 69.6916 34.7401 69.7147C34.6969 69.7361 34.6478 69.7569 34.5933 69.7764C34.5389 69.7943 34.4432 69.8241 34.3064 69.863C34.1696 69.902 34.0594 69.9362 33.9773 69.9646C33.8952 69.9944 33.8206 70.0264 33.7538 70.0642C33.6883 70.1007 33.6316 70.1417 33.5858 70.1873C33.5403 70.233 33.5071 70.2811 33.4869 70.3312C33.4659 70.3814 33.4559 70.4353 33.4559 70.4934C33.4559 70.5871 33.4825 70.6683 33.536 70.7356C33.5891 70.8039 33.6559 70.8509 33.7361 70.8782C33.8159 70.9044 33.9106 70.9182 34.0195 70.9182C34.0896 70.9182 34.163 70.9124 34.2397 70.901C34.3167 70.8907 34.421 70.8621 34.5509 70.8175C34.5057 70.9444 34.4522 71.134 34.3908 71.3862C34.2363 71.414 34.1141 71.4298 34.0228 71.4365C33.9318 71.4435 33.8471 71.4469 33.7684 71.4469C33.4948 71.4469 33.27 71.409 33.0943 71.3327C32.9186 71.2571 32.7888 71.1376 32.7054 70.9717C32.6218 70.8075 32.5796 70.6407 32.5796 70.4742C32.5796 70.3782 32.5962 70.2831 32.6284 70.1895C32.6606 70.0958 32.7087 70.0092 32.7722 69.9317C32.8353 69.8538 32.9166 69.7787 33.0166 69.7055C33.1166 69.6334 33.2613 69.5627 33.4503 69.4954C33.6393 69.4271 33.8883 69.3582 34.1996 69.2897C34.2822 69.2715 34.3678 69.2498 34.4565 69.2245C34.5455 69.1986 34.6166 69.1733 34.67 69.1493C34.7235 69.1243 34.7703 69.0925 34.8092 69.0535C34.8481 69.0146 34.8769 68.9737 34.8948 68.9316C34.9135 68.8888 34.9224 68.8457 34.9224 68.8011C34.9224 68.7143 34.8948 68.64 34.8404 68.5809C34.7846 68.5203 34.7125 68.4782 34.6245 68.4554C34.5366 68.4312 34.4399 68.4197 34.3333 68.4197C33.9372 68.4197 33.5015 68.5169 33.0232 68.7109ZM36.7731 67.3831C36.782 67.1535 36.7863 66.9765 36.7863 66.8543V66.7471C36.9843 66.7516 37.1444 66.754 37.2689 66.754C37.4382 66.754 37.596 66.7516 37.7415 66.7471C37.7348 66.8028 37.7305 66.8666 37.7282 66.9377L37.7116 67.3831C37.5469 67.3784 37.3945 67.3762 37.2556 67.3762C37.1167 67.3762 36.9554 67.3784 36.7731 67.3831ZM36.5964 71.3667C36.6286 71.0324 36.6519 70.7524 36.6652 70.5275C36.6864 70.1703 36.7063 69.759 36.7219 69.2921C36.7388 68.8262 36.7498 68.3835 36.7564 67.9641C36.97 67.9686 37.1288 67.9708 37.2354 67.9708C37.3323 67.9708 37.4914 67.9686 37.7105 67.9641C37.6804 68.3526 37.6561 68.7224 37.6371 69.0753C37.6192 69.4271 37.6059 69.831 37.597 70.2867C37.588 70.7412 37.5837 71.1018 37.5837 71.3667C37.3858 71.3625 37.228 71.36 37.1078 71.36C36.9956 71.36 36.8242 71.3625 36.5964 71.3667ZM38.4381 71.3667C38.4467 71.2058 38.4593 70.9066 38.4736 70.4668L38.9684 70.4742C39.0116 70.4742 39.1541 70.4718 39.3952 70.4668C39.3842 70.6305 39.3752 70.7938 39.3699 70.9594L39.3499 71.3667L38.9226 71.36C38.906 71.36 38.7436 71.3625 38.4381 71.3667ZM44.4773 68.7577C44.7775 68.7624 45.0644 68.7644 45.3381 68.7644C45.696 68.7644 45.994 68.7624 46.233 68.7577C46.1765 69.5043 46.1364 70.3337 46.1131 71.2459C45.7515 71.3202 45.426 71.3716 45.1355 71.401C44.8443 71.4319 44.5962 71.4469 44.3929 71.4469C44.0103 71.4469 43.6557 71.4059 43.3288 71.3233C43.0028 71.2403 42.7259 71.1067 42.5003 70.9213C42.2746 70.7365 42.1022 70.4934 41.9843 70.1907C41.8654 69.8883 41.8066 69.5694 41.8066 69.2326C41.8066 68.9452 41.8508 68.6677 41.9388 68.3994C42.0265 68.1319 42.1566 67.8867 42.329 67.6637C42.5014 67.4413 42.7103 67.2549 42.955 67.1065C43.1984 66.9583 43.4588 66.8579 43.7334 66.8028C44.0081 66.7482 44.2983 66.7207 44.6042 66.7207C45.0256 66.7207 45.5104 66.7789 46.0574 66.8941C46.0597 67.1488 46.072 67.4147 46.0929 67.6935C45.5804 67.5156 45.1168 67.4265 44.7018 67.4265C44.4351 67.4265 44.1827 67.465 43.9446 67.544C43.7079 67.6217 43.5023 67.7426 43.3299 67.9059C43.1575 68.0702 43.0264 68.2736 42.9361 68.5155C42.8461 68.7568 42.8005 69.0077 42.8005 69.2659C42.8005 69.5535 42.8517 69.8104 42.955 70.0376C43.0583 70.2639 43.232 70.4395 43.4743 70.5642C43.7178 70.6886 43.9971 70.7513 44.3116 70.7513C44.4261 70.7513 44.5617 70.7412 44.7184 70.7195C44.8742 70.6991 45.0379 70.6625 45.2068 70.6109L45.259 69.4369L45.002 69.4338C44.8565 69.4338 44.6719 69.4369 44.4484 69.4438C44.4686 69.1448 44.4773 68.9166 44.4773 68.7577ZM46.9795 71.3667L47.0741 69.7775L47.0997 68.8535C47.104 68.6639 47.1063 68.4735 47.1063 68.2817C47.1063 68.2483 47.104 68.1425 47.0997 67.9641C47.3019 67.9686 47.4498 67.9708 47.5454 67.9708C47.6566 67.9708 47.8034 67.9686 47.9858 67.9641L47.9691 68.4357C48.0515 68.3161 48.1225 68.2255 48.1813 68.1673C48.2394 68.108 48.3061 68.0565 48.3785 68.0145C48.4516 67.9722 48.5317 67.9399 48.6207 67.9173C48.7109 67.8956 48.802 67.8842 48.8953 67.8842C48.982 67.8842 49.071 67.8956 49.1623 67.9173C49.1623 68.1253 49.1722 68.3877 49.1912 68.7067C49.0633 68.6711 48.9465 68.6538 48.8431 68.6538C48.7163 68.6538 48.6053 68.6733 48.5084 68.7123C48.4118 68.7508 48.3251 68.8101 48.2481 68.8902C48.1704 68.9689 48.1069 69.0658 48.0571 69.1825C48.0159 69.276 47.9858 69.3973 47.9658 69.5468C47.9489 69.6632 47.9346 69.8617 47.9226 70.143C47.9113 70.4236 47.906 70.6998 47.906 70.9717C47.906 71.0769 47.908 71.2083 47.9146 71.3667C47.7502 71.3625 47.5988 71.36 47.462 71.36C47.3275 71.36 47.1664 71.3625 46.9795 71.3667ZM52.5728 70.6074C52.5452 70.7388 52.505 70.9753 52.4528 71.3166C52.2184 71.3681 52.0202 71.4021 51.8601 71.4207C51.6987 71.4374 51.5376 71.4469 51.3742 71.4469C51.0896 71.4469 50.8352 71.4182 50.6104 71.36C50.3857 71.3018 50.189 71.1957 50.0187 71.0405C49.8497 70.8849 49.7251 70.6954 49.6441 70.4706C49.564 70.2446 49.5239 70.008 49.5239 69.7603C49.5239 69.4864 49.5707 69.2201 49.664 68.9632C49.7573 68.7053 49.8888 68.495 50.0565 68.3307C50.2245 68.1662 50.4168 68.0509 50.6314 67.9827C50.8462 67.9153 51.0717 67.8806 51.3064 67.8806C51.5277 67.8806 51.7379 67.9095 51.9381 67.9666C52.138 68.0236 52.306 68.1158 52.4416 68.2452C52.5774 68.3754 52.6807 68.5308 52.7541 68.7123C52.8265 68.8938 52.8633 69.097 52.8633 69.3194C52.8633 69.4246 52.852 69.5318 52.831 69.6437L50.4424 69.6475C50.4378 69.7294 50.4357 69.7957 50.4357 69.8449C50.4357 69.9944 50.4613 70.1314 50.5112 70.2558C50.5602 70.3802 50.6337 70.4865 50.7293 70.5734C50.8249 70.6613 50.9385 70.7251 51.0707 70.7663C51.2042 70.8075 51.3341 70.828 51.4622 70.828C51.6121 70.828 51.7744 70.8106 51.9491 70.7779C52.1238 70.7444 52.3316 70.6875 52.5728 70.6074ZM50.468 69.2554L51.9936 69.2592C51.9936 69.1516 51.9903 69.0728 51.9836 69.0213C51.9769 68.9701 51.9624 68.9119 51.9401 68.8457C51.9169 68.7794 51.8859 68.7224 51.8468 68.672C51.8079 68.6218 51.7624 68.5798 51.71 68.5464C51.6578 68.5135 51.5977 68.4871 51.5287 68.469C51.4609 68.4518 51.3875 68.4424 51.3088 68.4424C51.2175 68.4424 51.1295 68.4573 51.0428 68.4862C50.9574 68.5147 50.8782 68.5581 50.8071 68.6127C50.7349 68.6689 50.6771 68.7315 50.6324 68.8011C50.5882 68.8696 50.5549 68.9358 50.5334 68.9996C50.5112 69.0636 50.4902 69.1484 50.468 69.2554ZM56.3551 70.6074C56.3269 70.7388 56.2871 70.9753 56.2349 71.3166C56.0004 71.3681 55.8022 71.4021 55.6422 71.4207C55.481 71.4374 55.3197 71.4469 55.1562 71.4469C54.8717 71.4469 54.617 71.4182 54.3924 71.36C54.168 71.3018 53.971 71.1957 53.801 71.0405C53.6317 70.8849 53.5072 70.6954 53.4261 70.4706C53.346 70.2446 53.3059 70.008 53.3059 69.7603C53.3059 69.4864 53.3527 69.2201 53.4461 68.9632C53.5396 68.7053 53.6708 68.495 53.8385 68.3307C54.0065 68.1662 54.1989 68.0509 54.4137 67.9827C54.6279 67.9153 54.8538 67.8806 55.0885 67.8806C55.3097 67.8806 55.5199 67.9095 55.7202 67.9666C55.9201 68.0236 56.0881 68.1158 56.2236 68.2452C56.3595 68.3754 56.4627 68.5308 56.5361 68.7123C56.6085 68.8938 56.645 69.097 56.645 69.3194C56.645 69.4246 56.6341 69.5318 56.6128 69.6437L54.2244 69.6475C54.2201 69.7294 54.2178 69.7957 54.2178 69.8449C54.2178 69.9944 54.2434 70.1314 54.2935 70.2558C54.3423 70.3802 54.4158 70.4865 54.5114 70.5734C54.607 70.6613 54.7203 70.7251 54.8527 70.7663C54.9862 70.8075 55.1161 70.828 55.244 70.828C55.3944 70.828 55.5565 70.8106 55.7311 70.7779C55.9058 70.7444 56.1137 70.6875 56.3551 70.6074ZM54.25 69.2554L55.7757 69.2592C55.7757 69.1516 55.7723 69.0728 55.7656 69.0213C55.759 68.9701 55.7444 68.9119 55.7224 68.8457C55.6989 68.7794 55.6679 68.7224 55.6288 68.672C55.5899 68.6218 55.5445 68.5798 55.4921 68.5464C55.4398 68.5135 55.3797 68.4871 55.3107 68.469C55.243 68.4518 55.1696 68.4424 55.0908 68.4424C54.9995 68.4424 54.9115 68.4573 54.8249 68.4862C54.7392 68.5147 54.6605 68.5581 54.5894 68.6127C54.517 68.6689 54.4592 68.7315 54.4147 68.8011C54.3702 68.8696 54.3367 68.9358 54.3155 68.9996C54.2935 69.0636 54.2722 69.1484 54.25 69.2554ZM57.1557 71.3667C57.2059 70.861 57.247 70.2912 57.2805 69.6612C57.3138 69.0294 57.3327 68.4641 57.337 67.9641C57.5373 67.9686 57.6973 67.9708 57.8165 67.9708C57.9577 67.9708 58.1078 67.9686 58.2668 67.9641L58.23 68.5327C58.2977 68.4348 58.3568 68.3569 58.408 68.2987C58.4591 68.2416 58.5236 68.1845 58.6036 68.1288C58.6826 68.0727 58.767 68.0281 58.857 67.9952C58.9473 67.961 59.0483 67.9343 59.1608 67.914C59.2731 67.8943 59.39 67.8842 59.5111 67.8842C59.7044 67.8842 59.8901 67.9095 60.0671 67.9596C60.2438 68.01 60.3872 68.0899 60.4951 68.1982C60.6041 68.3078 60.6762 68.4278 60.7107 68.5569C60.7452 68.6856 60.7631 68.823 60.7631 68.9678C60.7631 69.0282 60.7598 69.1243 60.7531 69.2554L60.6854 70.7184C60.6762 70.9205 60.6708 71.1376 60.6685 71.3667C60.4972 71.3625 60.3507 71.36 60.2294 71.36C60.0638 71.36 59.897 71.3625 59.73 71.3667C59.7476 71.1729 59.7689 70.8348 59.7944 70.3518C59.8213 69.8686 59.8333 69.549 59.8333 69.3928C59.8333 69.217 59.8067 69.0753 59.7522 68.9678C59.6978 68.8604 59.6144 68.7794 59.4999 68.7234C59.3853 68.6677 59.2631 68.64 59.1296 68.64C58.9995 68.64 58.8783 68.6653 58.7647 68.7168C58.6527 68.768 58.5547 68.8434 58.4714 68.9414C58.3844 69.0424 58.318 69.1654 58.2702 69.3125C58.22 69.4691 58.1834 69.7261 58.1589 70.086C58.1377 70.4044 58.1201 70.8317 58.1065 71.3667C57.9398 71.3625 57.7884 71.36 57.6541 71.36C57.5173 71.36 57.3516 71.3625 57.1557 71.3667ZM63.2195 71.3667C63.2564 70.9295 63.2832 70.5528 63.3008 70.2365C63.3264 69.7831 63.3553 69.1435 63.3875 68.3161C63.4087 67.7495 63.4198 67.3478 63.4198 67.1114V66.8006C63.6898 66.8053 63.8668 66.8073 63.9514 66.8073C64.0079 66.8073 64.1759 66.8053 64.4542 66.8006L64.3539 68.6071L64.2659 70.7721L64.256 71.3667L63.7512 71.36C63.6898 71.36 63.5131 71.3625 63.2195 71.3667ZM64.4017 68.9509L65.141 68.018L65.8151 67.1385C65.8629 67.0736 65.9429 66.9615 66.0562 66.8006L66.6423 66.8073C66.6666 66.8073 66.8535 66.8053 67.2026 66.8006L65.7038 68.6095L65.4504 68.9336L65.655 69.235C65.6859 69.2771 65.9005 69.5672 66.2996 70.1052L67.2483 71.3667L66.6689 71.36C66.5666 71.36 66.3554 71.3625 66.0339 71.3667L65.825 71.0324C65.7861 70.9675 65.7171 70.8621 65.6169 70.7148L64.7308 69.4166L64.4017 68.9509ZM69.4613 67.8842C69.7104 67.8842 69.9494 67.9233 70.1786 67.9995C70.4087 68.0762 70.6023 68.1902 70.7624 68.3412C70.9212 68.4918 71.0414 68.6756 71.1227 68.8926C71.2025 69.1106 71.2427 69.3391 71.2427 69.58C71.2427 69.8346 71.2004 70.0799 71.1158 70.3165C71.0314 70.5528 70.9079 70.7573 70.7478 70.9295C70.5867 71.1031 70.3865 71.2322 70.1464 71.3177C69.906 71.4035 69.6503 71.4469 69.3792 71.4469C69.1276 71.4469 68.8875 71.4081 68.6609 71.3316C68.4338 71.2548 68.2405 71.1384 68.0792 70.9854C67.9191 70.8316 67.7966 70.6441 67.7135 70.4236C67.6302 70.2023 67.5877 69.9713 67.5877 69.7305C67.5877 69.4853 67.6256 69.2512 67.7023 69.0283C67.7776 68.8058 67.8968 68.6071 68.058 68.4325C68.2203 68.2588 68.4272 68.1239 68.6786 68.0281C68.931 67.9321 69.1911 67.8842 69.4613 67.8842ZM69.4613 68.5742C69.2723 68.5742 69.1033 68.6205 68.9542 68.7154C68.8052 68.8101 68.6952 68.9519 68.6218 69.139C68.5494 69.3262 68.5129 69.5309 68.5129 69.7511C68.5129 69.9454 68.5428 70.1175 68.6029 70.2694C68.6619 70.4216 68.7596 70.5438 68.8952 70.6371C69.0309 70.7307 69.192 70.7779 69.3792 70.7779C69.5705 70.7779 69.738 70.7296 69.8828 70.6329C70.0275 70.5358 70.1352 70.3928 70.2085 70.2043C70.2809 70.0159 70.3174 69.808 70.3174 69.581C70.3174 69.3949 70.2899 69.227 70.2331 69.0753C70.1763 68.9242 70.0817 68.802 69.9472 68.7109C69.814 68.6196 69.6516 68.5742 69.4613 68.5742ZM72.7319 71.3667C72.5885 70.8966 72.2039 69.7614 71.5756 67.9641C71.7669 67.9686 71.931 67.9708 72.0701 67.9708C72.2182 67.9708 72.3693 67.9686 72.5237 67.9641L73.2868 70.5172L73.3911 70.226L74.124 68.3161C74.1586 68.2268 74.2018 68.1091 74.2542 67.9641C74.4319 67.9686 74.59 67.9708 74.7288 67.9708C74.87 67.9708 75.0314 67.9686 75.2116 67.9641L74.68 69.1448L73.9116 70.935L73.7392 71.3667C73.5436 71.3625 73.3791 71.36 73.2467 71.36C73.1076 71.36 72.9365 71.3625 72.7319 71.3667ZM75.7323 68.7109C75.7625 68.55 75.7814 68.4381 75.7888 68.373C75.7967 68.3078 75.81 68.2096 75.8302 68.0782C76.1258 68.0064 76.3861 67.9574 76.6119 67.9276C76.8374 67.8992 77.0566 67.8842 77.2668 67.8842C77.5059 67.8842 77.7248 67.9126 77.9251 67.9697C78.1242 68.0268 78.281 68.1172 78.3943 68.2416C78.5065 68.3674 78.5633 68.5464 78.5633 68.7803C78.5633 68.9085 78.5456 69.2315 78.5111 69.7523C78.4756 70.273 78.4554 70.812 78.4487 71.3667C78.283 71.3625 78.1319 71.36 77.9928 71.36C77.8606 71.36 77.7048 71.3625 77.5269 71.3667C77.5558 71.0973 77.578 70.7846 77.5959 70.4306L77.6381 69.5969C77.5558 69.6531 77.4926 69.6916 77.4489 69.7147C77.4059 69.7361 77.3568 69.7569 77.3024 69.7764C77.2479 69.7943 77.1523 69.8241 77.0155 69.863C76.8786 69.902 76.7684 69.9362 76.6863 69.9646C76.604 69.9944 76.5296 70.0264 76.4628 70.0642C76.3971 70.1007 76.3406 70.1417 76.2948 70.1873C76.2493 70.233 76.216 70.2811 76.1959 70.3312C76.1749 70.3814 76.1649 70.4353 76.1649 70.4934C76.1649 70.5871 76.1916 70.6683 76.245 70.7356C76.2982 70.8039 76.3649 70.8509 76.4452 70.8782C76.525 70.9044 76.6196 70.9182 76.7285 70.9182C76.7986 70.9182 76.872 70.9124 76.9487 70.901C77.0254 70.8907 77.13 70.8621 77.2599 70.8175C77.2146 70.9444 77.1612 71.134 77.0998 71.3862C76.9454 71.414 76.8232 71.4298 76.7319 71.4365C76.6408 71.4435 76.5562 71.4469 76.4774 71.4469C76.2038 71.4469 75.979 71.409 75.8033 71.3327C75.6276 71.2571 75.4978 71.1376 75.4142 70.9717C75.3308 70.8075 75.2886 70.6407 75.2886 70.4742C75.2886 70.3782 75.3052 70.2831 75.3375 70.1895C75.3696 70.0958 75.4174 70.0092 75.4811 69.9317C75.5443 69.8538 75.6257 69.7787 75.7256 69.7055C75.8256 69.6334 75.9703 69.5627 76.1593 69.4954C76.3483 69.4271 76.5973 69.3582 76.9086 69.2897C76.9909 69.2715 77.0766 69.2498 77.1656 69.2245C77.2545 69.1986 77.3256 69.1733 77.3791 69.1493C77.4325 69.1243 77.4791 69.0925 77.5179 69.0535C77.5571 69.0146 77.586 68.9737 77.6036 68.9316C77.6225 68.8888 77.6314 68.8457 77.6314 68.8011C77.6314 68.7143 77.6036 68.64 77.5491 68.5809C77.4936 68.5203 77.4215 68.4782 77.3336 68.4554C77.2456 68.4312 77.1489 68.4197 77.042 68.4197C76.6462 68.4197 76.2104 68.5169 75.7323 68.7109Z" fill="#1A1B1F"/>
<path fill-rule="evenodd" clip-rule="evenodd" d="M79.4809 67.3841C79.4898 67.1545 79.4942 66.9775 79.4942 66.8553V66.748C79.6921 66.7525 79.8522 66.755 79.9767 66.755C80.1457 66.755 80.3038 66.7525 80.4493 66.748C80.4427 66.8038 80.4383 66.8676 80.436 66.9387L80.4194 67.3841C80.2547 67.3794 80.1022 67.3772 79.9634 67.3772C79.8245 67.3772 79.6632 67.3794 79.4809 67.3841ZM79.3042 71.3677C79.3364 71.0333 79.3597 70.7534 79.3729 70.5285C79.3942 70.1713 79.4142 69.76 79.4297 69.2931C79.4463 68.8271 79.4576 68.3845 79.4642 67.9651C79.6775 67.9695 79.8366 67.9718 79.9432 67.9718C80.0402 67.9718 80.1992 67.9695 80.4184 67.9651C80.3882 68.3536 80.3639 68.7233 80.345 69.0762C80.3271 69.4281 80.3138 69.832 80.3048 70.2877C80.2958 70.7422 80.2912 71.1028 80.2912 71.3677C80.0936 71.3634 79.9355 71.361 79.8156 71.361C79.7031 71.361 79.532 71.3634 79.3042 71.3677ZM81.1458 71.3677C81.1545 71.2068 81.1668 70.9076 81.1814 70.4678L81.6762 70.4752C81.7194 70.4752 81.8619 70.4728 82.103 70.4678C82.092 70.6314 82.0831 70.7948 82.0777 70.9604L82.0578 71.3677L81.6304 71.361C81.6138 71.361 81.4515 71.3634 81.1458 71.3677Z" fill="#1A1B1F"/>
<path fill-rule="evenodd" clip-rule="evenodd" d="M14.3234 58.8516V53.6403C14.3234 52.9621 14.2824 52.3544 14.2048 51.8139C14.1228 51.2733 13.9795 50.6578 13.7708 49.9638H15.6325H17.4901C17.2814 50.3662 17.1341 50.8354 17.0524 51.372C16.9664 51.9125 16.9254 52.6697 16.9254 53.6403V58.8516C16.9254 59.83 16.9664 60.5872 17.0524 61.1238C17.1341 61.6602 17.2814 62.1256 17.4901 62.528H15.6325H13.7708C13.9795 62.1414 14.1228 61.6801 14.2048 61.1395C14.2824 60.603 14.3234 59.8379 14.3234 58.8516ZM19.0546 58.8516V53.6403C19.0546 52.9621 19.0136 52.3544 18.936 51.8139C18.854 51.2733 18.711 50.6578 18.5023 49.9638H20.0733H21.6566V52.1926L23.682 49.9995C24.2792 49.79 24.856 49.6877 25.4085 49.6877C25.8628 49.6877 26.2514 49.7703 26.5705 49.94L26.0427 52.6462L25.9241 52.5675C25.437 52.2204 24.856 52.0465 24.1854 52.0465C23.6901 52.0465 23.0436 52.224 22.2458 52.5754L21.6566 52.8315V58.8516C21.6566 59.83 21.6976 60.5872 21.7833 61.1238C21.8653 61.6602 22.0127 62.1256 22.2213 62.528H20.3637H18.5023C18.711 62.1414 18.854 61.6801 18.936 61.1395C19.0136 60.603 19.0546 59.8379 19.0546 58.8516ZM30.1682 53.6403V58.3189C30.1682 59.0448 30.34 59.5813 30.6879 59.9322C31.0358 60.2837 31.5675 60.4572 32.2795 60.4572C32.844 60.4572 33.5233 60.3072 34.3171 60.0074L34.7467 59.8458V53.6403C34.7467 52.9539 34.7057 52.3425 34.6278 51.8019C34.5459 51.2618 34.4028 50.6501 34.1941 49.9638H36.0558H37.9132C37.7045 50.3662 37.5574 50.8354 37.4757 51.372C37.3897 51.9125 37.3487 52.6697 37.3487 53.6403V58.8516C37.3487 59.83 37.3897 60.5872 37.4757 61.1238C37.5574 61.6602 37.7045 62.1256 37.9132 62.528H36.4035H34.8775V60.39L32.8277 62.54C32.0871 62.7253 31.5267 62.816 31.1503 62.816C29.976 62.816 29.084 62.5161 28.4785 61.9128C27.869 61.3131 27.5661 60.4376 27.5661 59.2895V53.6403C27.5661 52.9621 27.5252 52.3504 27.4475 51.8139C27.3656 51.2733 27.2226 50.6578 27.0136 49.9638H28.8753H30.7329C30.5242 50.3662 30.3771 50.8354 30.2868 51.372C30.2092 51.9125 30.1682 52.6697 30.1682 53.6403ZM42.9104 62.8043C41.8878 62.8043 41.1428 62.5125 40.6725 61.9248C40.206 61.3408 39.9729 60.4019 39.9729 59.1156V51.6954H38.1275C40.7041 50.9463 41.6198 49.6964 41.6692 46.2546L42.6546 46.2144L42.5749 49.9638H45.6066V51.6954H42.5749V58.0625C42.5749 58.9105 42.7264 59.5456 43.0249 59.964C43.3237 60.3858 43.7736 60.5951 44.3712 60.5951C44.7392 60.5951 45.079 60.5518 45.3856 60.469C45.6926 60.3823 46.0608 60.2324 46.4945 60.0191L45.4636 62.4337C45.0092 62.5793 44.6084 62.6779 44.2686 62.7297C43.9291 62.7806 43.4792 62.8043 42.9104 62.8043ZM48.5178 58.8516V48.9145C48.5178 48.0976 48.4786 47.4191 48.399 46.8786C48.3193 46.338 48.174 45.7939 47.9655 45.2375L49.827 44.8789L51.6844 44.5078C51.4759 45.08 51.3308 45.7154 51.2468 46.4172C51.1631 47.1159 51.1198 48.0744 51.1198 49.2815V52.1493L53.0961 49.9518C53.7669 49.7744 54.3276 49.6877 54.7735 49.6877C55.9559 49.6877 56.8549 50.0438 57.4697 50.7564C58.0864 51.4716 58.3943 52.5084 58.3943 53.8732V58.8516C58.3943 59.9009 58.4294 60.6935 58.4966 61.2265C58.5643 61.7627 58.6849 62.1968 58.8608 62.528H57.0523H55.2398C55.4487 62.1414 55.5935 61.6801 55.6734 61.1395C55.7528 60.6033 55.7923 59.8379 55.7923 58.8516V54.2201C55.7923 53.4863 55.6164 52.9422 55.2644 52.5831C54.9127 52.224 54.3724 52.0465 53.6483 52.0465C53.1533 52.0465 52.5102 52.2316 51.705 52.579L51.1198 52.8315V58.8516C51.1198 59.8295 51.1629 60.5872 51.2468 61.1238C51.3306 61.6599 51.4759 62.1256 51.6844 62.528H49.827H47.9655C48.174 62.1414 48.3191 61.6801 48.399 61.1395C48.4784 60.6033 48.5178 59.8379 48.5178 58.8516ZM64.058 53.6403V58.3189C64.058 59.0448 64.2298 59.5813 64.5775 59.9322C64.9253 60.2837 65.457 60.4572 66.1691 60.4572C66.7336 60.4572 67.4128 60.3072 68.2067 60.0074L68.6363 59.8458V53.6403C68.6363 52.9539 68.5952 52.3425 68.5177 51.8019C68.4357 51.2618 68.2924 50.6501 68.0837 49.9638H69.9454H71.803C71.5941 50.3662 71.447 50.8354 71.3653 51.372C71.2793 51.9125 71.2383 52.6697 71.2383 53.6403V58.8516C71.2383 59.83 71.2793 60.5872 71.3653 61.1238C71.447 61.6602 71.5941 62.1256 71.803 62.528H70.2931H68.7671V60.39L66.7173 62.54C65.9767 62.7253 65.4163 62.816 65.0399 62.816C63.8656 62.816 62.9736 62.5161 62.3681 61.9128C61.7586 61.3131 61.4557 60.4376 61.4557 59.2895V53.6403C61.4557 52.9621 61.415 52.3504 61.3371 51.8139C61.2552 51.2733 61.1122 50.6578 60.9034 49.9638H62.7651H64.6225C64.4138 50.3662 64.2667 50.8354 64.1766 51.372C64.099 51.9125 64.058 52.6697 64.058 53.6403ZM74.0546 58.8516V48.9145C74.0546 48.0976 74.0139 47.4194 73.936 46.8786C73.8543 46.3385 73.7111 45.7939 73.5023 45.2375L75.364 44.8789L77.2214 44.5078C77.0127 45.08 76.8656 45.7151 76.7836 46.4132C76.6979 47.1156 76.6569 48.0701 76.6569 49.2815V58.8516C76.6569 59.83 76.6979 60.5872 76.7836 61.1238C76.8656 61.6602 77.0127 62.1256 77.2214 62.528H75.364H73.5023C73.7111 62.1414 73.8543 61.6801 73.936 61.1395C74.0139 60.603 74.0546 59.8379 74.0546 58.8516ZM78.9375 58.8516V53.6403C78.9375 52.9621 78.8965 52.3544 78.8187 51.8139C78.737 51.2733 78.5937 50.6578 78.385 49.9638H80.2467H82.104C81.8956 50.3662 81.7482 50.8354 81.6663 51.372C81.5803 51.9125 81.5396 52.6697 81.5396 53.6403V58.8516C81.5396 59.83 81.5803 60.5872 81.6663 61.1238C81.7482 61.6602 81.8956 62.1256 82.104 62.528H80.2467H78.385C78.5937 62.1414 78.737 61.6801 78.8187 61.1395C78.8965 60.603 78.9375 59.8379 78.9375 58.8516Z" fill="#1A1B1F"/>
<path fill-rule="evenodd" clip-rule="evenodd" d="M11.618 48.5998C10.9621 48.02 10.3012 47.602 9.64505 47.3418C8.98441 47.0775 8.26109 46.9472 7.46983 46.9472C6.54851 46.9472 5.78197 47.1761 5.17397 47.6338C4.56645 48.0911 4.2674 48.663 4.2674 49.3496C4.2674 49.9374 4.49879 50.4657 4.9716 50.9433C5.43458 51.4126 6.26906 51.9611 7.47495 52.5847C9.30299 53.5392 10.5857 54.4348 11.3286 55.2669C12.0761 56.0993 12.4474 57.0699 12.4474 58.1786C12.4474 59.6815 11.7964 60.9281 10.4989 61.9221C9.19689 62.9163 7.56173 63.4131 5.59387 63.4131C4.61001 63.4131 3.77062 63.3537 3.07611 63.2395C2.37696 63.1251 1.56154 62.9079 0.630859 62.5927V59.208C1.31089 59.902 2.01025 60.4071 2.73862 60.7308C3.46215 61.0543 4.25797 61.2156 5.12611 61.2156C6.22072 61.2156 7.1275 60.9595 7.84624 60.4464C8.56956 59.9338 8.93143 59.2947 8.93143 58.5255C8.93143 57.8549 8.68556 57.259 8.19336 56.7465C7.7159 56.2372 6.85268 55.6574 5.61326 55.0103C3.82381 54.0877 2.56479 53.2277 1.84147 52.4346C1.11309 51.6417 0.746383 50.7305 0.746383 49.7087C0.746383 48.2884 1.4073 47.1089 2.72872 46.1661C4.05519 45.2233 5.71451 44.75 7.70627 44.75C8.50695 44.75 9.22078 44.8091 9.84763 44.9233C10.475 45.0378 11.0634 45.2193 11.618 45.4677V48.5998Z" fill="#1A1B1F"/>
<path fill-rule="evenodd" clip-rule="evenodd" d="M85.8303 2.91802C86.5769 0.923878 86.0921 1.22613 86.123 2.61633C86.1671 4.58505 86.4946 6.40448 86.843 8.11539C88.582 16.6597 92.5668 22.429 91.9954 29.464C91.7847 32.06 90.6056 34.2596 89.1408 35.9214C88.095 37.0982 87.2558 38.7026 88.4391 40.5646C88.4789 40.6272 85.3438 39.1355 83.0446 40.9463C82.8289 41.1161 82.6123 41.2021 82.616 41.1977C83.2489 40.4421 85.305 37.9195 84.1521 35.8853C84.1279 35.8422 86.0735 37.5334 87.7936 36.4678C88.258 36.1803 88.8282 35.7106 89.1072 35.2632C90.2537 33.4253 90.375 29.2986 90.3764 27.979C90.3801 24.0465 88.3479 20.5977 87.0106 16.6755C86.208 14.3228 85.6234 7.85522 85.4738 8.73439C85.378 9.29787 79.0023 15.8043 78.434 20.9796C77.8181 26.5862 86.9533 27.3096 83.9086 34.7021C81.5158 40.5109 76.5713 39.8983 75.9064 39.8306C71.7244 39.404 68.737 37.2161 67.0626 33.9506C66.3014 32.4664 65.8114 30.7594 65.6038 28.894C64.5407 19.3399 74.4201 15.0675 80.6675 9.34196C82.9233 7.27509 84.7451 5.81607 85.8303 2.91802Z" fill="#1A1B1F"/>
<path fill-rule="evenodd" clip-rule="evenodd" d="M92.5241 0.554688C94.0938 0.554688 95.3661 1.82425 95.3661 3.39065C95.3661 4.95634 94.0938 6.22609 92.5241 6.22609C90.9545 6.22609 89.6819 4.95634 89.6819 3.39065C89.6819 1.82425 90.9545 0.554688 92.5241 0.554688Z" stroke="#1A1B1F" stroke-miterlimit="2.61313"/>
<path d="M91.104 4.8064V1.9707H92.4477C92.7854 1.9707 93.0311 1.99643 93.1839 2.04713C93.3377 2.09812 93.4599 2.1884 93.5519 2.31842C93.6438 2.44909 93.69 2.59771 93.69 2.76534C93.69 2.97852 93.621 3.15409 93.4818 3.29274C93.343 3.4314 93.1355 3.51844 92.859 3.55494C92.9964 3.62691 93.1098 3.70594 93.1988 3.79256C93.2883 3.87896 93.4092 4.03274 93.5605 4.25328L93.9461 4.8064H93.1831L92.7256 4.18716C92.5618 3.9675 92.4491 3.82884 92.3882 3.77136C92.3278 3.71457 92.2638 3.67506 92.1962 3.65391C92.1278 3.6327 92.0205 3.62215 91.8732 3.62215H91.7437V4.8064H91.104ZM91.7437 3.17072H92.2161C92.5221 3.17072 92.7124 3.15884 92.789 3.13572C92.8648 3.1126 92.9252 3.07221 92.9678 3.01566C93.0111 2.95881 93.0325 2.88755 93.0325 2.80225C93.0325 2.70659 93.0038 2.6301 92.9471 2.57071C92.8905 2.51196 92.8104 2.47504 92.7074 2.45969C92.6551 2.4532 92.4999 2.44978 92.2416 2.44978H91.7437V3.17072Z" fill="#1A1B1F"/>
</svg>
