<svg width="32" height="32" viewBox="0 0 32 32" fill="none" xmlns="http://www.w3.org/2000/svg">
<path fill-rule="evenodd" clip-rule="evenodd" d="M21.6442 24.3937C21.5399 23.7767 21.0018 20.8201 19.6767 17.1823C22.8507 16.681 25.6287 17.5035 25.9748 17.6194C25.5387 20.4347 23.9197 22.8641 21.6442 24.3937ZM16.0003 26.129C13.6607 26.129 11.5013 25.3321 9.7923 23.9952C9.97245 23.6223 12.0276 19.6634 17.7354 17.6708C17.7615 17.658 17.7733 17.658 17.7994 17.645C19.2264 21.3345 19.8047 24.4323 19.9588 25.3191C18.7381 25.8462 17.4012 26.129 16.0003 26.129ZM5.8717 16.0125C5.8717 15.9096 5.8717 15.8068 5.8717 15.7041C6.30785 15.7167 11.2193 15.7812 16.2705 14.2641C16.5668 14.8299 16.8347 15.4085 17.093 15.9869C16.965 16.0253 16.8228 16.0639 16.6948 16.1023C11.4752 17.7865 8.69955 22.3883 8.46726 22.774C6.86015 20.9872 5.8717 18.6092 5.8717 16.0125ZM11.6933 6.84723C11.9635 7.20729 13.7627 9.71372 15.448 12.6961C10.7167 13.956 6.54015 13.9301 6.08978 13.9301C6.744 10.7937 8.86547 8.18412 11.6933 6.84723ZM16.0003 5.89601C18.5721 5.89601 20.9236 6.86003 22.7108 8.44131C22.5307 8.69826 21.0018 10.7422 17.4012 12.0919C15.7443 9.04552 13.9049 6.55165 13.6228 6.16599C14.3813 5.98608 15.1778 5.89601 16.0003 5.89601ZM23.8296 9.61109C25.2424 11.3334 26.091 13.5317 26.117 15.9096C25.7828 15.8454 22.4406 15.1642 19.0723 15.5882C18.9965 15.4211 18.9301 15.2414 18.8542 15.0613C18.648 14.5727 18.4181 14.0714 18.1858 13.5959C21.9144 12.0791 23.6092 9.89387 23.8296 9.61109ZM16.0003 4.14786C9.45807 4.14786 4.14844 9.45678 4.14844 15.9997C4.14844 22.5426 9.45807 27.8516 16.0003 27.8516C22.5307 27.8516 27.8521 22.5426 27.8521 15.9997C27.8521 9.45678 22.5307 4.14786 16.0003 4.14786Z" fill="white" fill-opacity="0.65"/>
</svg>
