<svg width="24" height="24" viewBox="0 0 24 24" fill="none" xmlns="http://www.w3.org/2000/svg">
<path d="M1.98845 4.62679C4.48077 4.59612 6.97922 4.58933 9.4748 4.58256C11.4643 4.57716 13.4519 4.57177 15.4332 4.55427L16.6554 4.54348L15.7911 5.4078L0.701433 20.4978L0.701401 20.4978C0.432983 20.7662 0.434328 21.2876 0.69668 21.55L2.45065 23.304C2.45081 23.3041 2.45097 23.3043 2.45114 23.3045C2.71363 23.5656 3.23486 23.5668 3.50323 23.2984L18.5929 8.20839L19.4527 7.34866L19.4465 8.56448C19.4349 10.858 19.4234 13.393 19.4115 16.01C19.4025 17.9893 19.3933 20.0154 19.3837 22.0194C20.0309 22.0116 20.6306 22.006 21.2328 22.0003C21.9196 21.9939 22.6096 21.9875 23.377 21.9778C23.4241 18.3545 23.4337 14.6476 23.4437 10.808C23.4524 7.48428 23.4613 4.06112 23.495 0.506698C19.7656 0.554089 15.9362 0.565135 11.97 0.576575C8.75201 0.585857 5.4439 0.595399 2.02598 0.624825C2.02239 1.16368 2.01589 1.72995 2.00923 2.3099C2.00051 3.06903 1.99153 3.8516 1.98845 4.62679Z" fill="black" stroke="#3FC5B3"/>
</svg>
